G04 #@! TF.GenerationSoftware,KiCad,Pcbnew,(5.1.8)-1*
G04 #@! TF.CreationDate,2020-12-07T14:59:37+01:00*
G04 #@! TF.ProjectId,PPM,50504d2e-6b69-4636-9164-5f7063625858,rev?*
G04 #@! TF.SameCoordinates,Original*
G04 #@! TF.FileFunction,Soldermask,Top*
G04 #@! TF.FilePolarity,Negative*
%FSLAX46Y46*%
G04 Gerber Fmt 4.6, Leading zero omitted, Abs format (unit mm)*
G04 Created by KiCad (PCBNEW (5.1.8)-1) date 2020-12-07 14:59:37*
%MOMM*%
%LPD*%
G01*
G04 APERTURE LIST*
%ADD10C,1.700000*%
%ADD11R,1.700000X1.100000*%
%ADD12R,1.500000X1.000000*%
%ADD13O,1.700000X1.700000*%
%ADD14R,1.700000X1.700000*%
%ADD15R,2.032000X1.397000*%
%ADD16R,1.397000X1.270000*%
%ADD17R,1.270000X1.397000*%
%ADD18R,1.600000X1.600000*%
%ADD19C,1.600000*%
%ADD20O,2.000000X1.905000*%
%ADD21R,2.000000X1.905000*%
%ADD22R,0.900000X0.800000*%
%ADD23R,0.800000X0.900000*%
%ADD24R,3.000000X1.600000*%
%ADD25C,2.000000*%
%ADD26R,1.397000X2.032000*%
%ADD27R,1.524000X2.921000*%
%ADD28R,1.200000X0.900000*%
%ADD29R,3.500000X3.000000*%
%ADD30R,2.000000X2.000000*%
%ADD31R,0.900000X1.200000*%
%ADD32R,1.300000X1.700000*%
%ADD33C,3.000000*%
%ADD34C,3.200000*%
%ADD35R,3.200000X3.200000*%
%ADD36C,3.500000*%
%ADD37R,7.000000X5.000000*%
%ADD38R,2.500000X2.500000*%
%ADD39R,1.800000X1.800000*%
%ADD40C,1.800000*%
%ADD41R,1.500000X1.050000*%
%ADD42R,1.905000X2.000000*%
%ADD43O,1.905000X2.000000*%
%ADD44C,1.524000*%
%ADD45R,1.060000X0.650000*%
%ADD46R,1.400000X1.600000*%
%ADD47R,4.600000X1.100000*%
%ADD48R,9.400000X10.800000*%
%ADD49R,0.650000X1.060000*%
%ADD50R,1.400000X0.280000*%
%ADD51R,1.450000X0.450000*%
%ADD52R,1.200000X0.400000*%
%ADD53R,0.400000X1.200000*%
%ADD54R,2.000000X1.500000*%
%ADD55C,2.340000*%
%ADD56C,4.000000*%
%ADD57C,2.400000*%
%ADD58R,2.400000X2.400000*%
%ADD59R,6.000000X4.000000*%
%ADD60R,1.000000X1.500000*%
G04 APERTURE END LIST*
D10*
X135000000Y300500000D03*
X103000000Y273000000D03*
D11*
X17809000Y231583000D03*
X17809000Y234123000D03*
X17809000Y229043000D03*
X29309000Y231583000D03*
X29309000Y234123000D03*
X29309000Y229043000D03*
D12*
X23545800Y261573800D03*
X23545800Y260273800D03*
X23545800Y258973800D03*
D13*
X21209000Y257810000D03*
X21209000Y260350000D03*
D14*
X21209000Y262890000D03*
D15*
X40347900Y261061200D03*
X40347900Y257810000D03*
X42913300Y257810000D03*
X42913300Y261061200D03*
G36*
G01*
X36590900Y257031200D02*
X36590900Y256381200D01*
G75*
G02*
X36515900Y256306200I-75000J0D01*
G01*
X36365900Y256306200D01*
G75*
G02*
X36290900Y256381200I0J75000D01*
G01*
X36290900Y257031200D01*
G75*
G02*
X36365900Y257106200I75000J0D01*
G01*
X36515900Y257106200D01*
G75*
G02*
X36590900Y257031200I0J-75000D01*
G01*
G37*
G36*
G01*
X35940900Y257031200D02*
X35940900Y256381200D01*
G75*
G02*
X35865900Y256306200I-75000J0D01*
G01*
X35715900Y256306200D01*
G75*
G02*
X35640900Y256381200I0J75000D01*
G01*
X35640900Y257031200D01*
G75*
G02*
X35715900Y257106200I75000J0D01*
G01*
X35865900Y257106200D01*
G75*
G02*
X35940900Y257031200I0J-75000D01*
G01*
G37*
G36*
G01*
X35290900Y257031200D02*
X35290900Y256381200D01*
G75*
G02*
X35215900Y256306200I-75000J0D01*
G01*
X35065900Y256306200D01*
G75*
G02*
X34990900Y256381200I0J75000D01*
G01*
X34990900Y257031200D01*
G75*
G02*
X35065900Y257106200I75000J0D01*
G01*
X35215900Y257106200D01*
G75*
G02*
X35290900Y257031200I0J-75000D01*
G01*
G37*
G36*
G01*
X34640900Y257031200D02*
X34640900Y256381200D01*
G75*
G02*
X34565900Y256306200I-75000J0D01*
G01*
X34415900Y256306200D01*
G75*
G02*
X34340900Y256381200I0J75000D01*
G01*
X34340900Y257031200D01*
G75*
G02*
X34415900Y257106200I75000J0D01*
G01*
X34565900Y257106200D01*
G75*
G02*
X34640900Y257031200I0J-75000D01*
G01*
G37*
G36*
G01*
X33990900Y257031200D02*
X33990900Y256381200D01*
G75*
G02*
X33915900Y256306200I-75000J0D01*
G01*
X33765900Y256306200D01*
G75*
G02*
X33690900Y256381200I0J75000D01*
G01*
X33690900Y257031200D01*
G75*
G02*
X33765900Y257106200I75000J0D01*
G01*
X33915900Y257106200D01*
G75*
G02*
X33990900Y257031200I0J-75000D01*
G01*
G37*
G36*
G01*
X33090900Y257931200D02*
X33090900Y257781200D01*
G75*
G02*
X33015900Y257706200I-75000J0D01*
G01*
X32365900Y257706200D01*
G75*
G02*
X32290900Y257781200I0J75000D01*
G01*
X32290900Y257931200D01*
G75*
G02*
X32365900Y258006200I75000J0D01*
G01*
X33015900Y258006200D01*
G75*
G02*
X33090900Y257931200I0J-75000D01*
G01*
G37*
G36*
G01*
X33090900Y258581200D02*
X33090900Y258431200D01*
G75*
G02*
X33015900Y258356200I-75000J0D01*
G01*
X32365900Y258356200D01*
G75*
G02*
X32290900Y258431200I0J75000D01*
G01*
X32290900Y258581200D01*
G75*
G02*
X32365900Y258656200I75000J0D01*
G01*
X33015900Y258656200D01*
G75*
G02*
X33090900Y258581200I0J-75000D01*
G01*
G37*
G36*
G01*
X33090900Y259231200D02*
X33090900Y259081200D01*
G75*
G02*
X33015900Y259006200I-75000J0D01*
G01*
X32365900Y259006200D01*
G75*
G02*
X32290900Y259081200I0J75000D01*
G01*
X32290900Y259231200D01*
G75*
G02*
X32365900Y259306200I75000J0D01*
G01*
X33015900Y259306200D01*
G75*
G02*
X33090900Y259231200I0J-75000D01*
G01*
G37*
G36*
G01*
X33090900Y259881200D02*
X33090900Y259731200D01*
G75*
G02*
X33015900Y259656200I-75000J0D01*
G01*
X32365900Y259656200D01*
G75*
G02*
X32290900Y259731200I0J75000D01*
G01*
X32290900Y259881200D01*
G75*
G02*
X32365900Y259956200I75000J0D01*
G01*
X33015900Y259956200D01*
G75*
G02*
X33090900Y259881200I0J-75000D01*
G01*
G37*
G36*
G01*
X33090900Y260531200D02*
X33090900Y260381200D01*
G75*
G02*
X33015900Y260306200I-75000J0D01*
G01*
X32365900Y260306200D01*
G75*
G02*
X32290900Y260381200I0J75000D01*
G01*
X32290900Y260531200D01*
G75*
G02*
X32365900Y260606200I75000J0D01*
G01*
X33015900Y260606200D01*
G75*
G02*
X33090900Y260531200I0J-75000D01*
G01*
G37*
G36*
G01*
X33990900Y261931200D02*
X33990900Y261281200D01*
G75*
G02*
X33915900Y261206200I-75000J0D01*
G01*
X33765900Y261206200D01*
G75*
G02*
X33690900Y261281200I0J75000D01*
G01*
X33690900Y261931200D01*
G75*
G02*
X33765900Y262006200I75000J0D01*
G01*
X33915900Y262006200D01*
G75*
G02*
X33990900Y261931200I0J-75000D01*
G01*
G37*
G36*
G01*
X34640900Y261931200D02*
X34640900Y261281200D01*
G75*
G02*
X34565900Y261206200I-75000J0D01*
G01*
X34415900Y261206200D01*
G75*
G02*
X34340900Y261281200I0J75000D01*
G01*
X34340900Y261931200D01*
G75*
G02*
X34415900Y262006200I75000J0D01*
G01*
X34565900Y262006200D01*
G75*
G02*
X34640900Y261931200I0J-75000D01*
G01*
G37*
G36*
G01*
X35290900Y261931200D02*
X35290900Y261281200D01*
G75*
G02*
X35215900Y261206200I-75000J0D01*
G01*
X35065900Y261206200D01*
G75*
G02*
X34990900Y261281200I0J75000D01*
G01*
X34990900Y261931200D01*
G75*
G02*
X35065900Y262006200I75000J0D01*
G01*
X35215900Y262006200D01*
G75*
G02*
X35290900Y261931200I0J-75000D01*
G01*
G37*
G36*
G01*
X35940900Y261931200D02*
X35940900Y261281200D01*
G75*
G02*
X35865900Y261206200I-75000J0D01*
G01*
X35715900Y261206200D01*
G75*
G02*
X35640900Y261281200I0J75000D01*
G01*
X35640900Y261931200D01*
G75*
G02*
X35715900Y262006200I75000J0D01*
G01*
X35865900Y262006200D01*
G75*
G02*
X35940900Y261931200I0J-75000D01*
G01*
G37*
G36*
G01*
X36590900Y261931200D02*
X36590900Y261281200D01*
G75*
G02*
X36515900Y261206200I-75000J0D01*
G01*
X36365900Y261206200D01*
G75*
G02*
X36290900Y261281200I0J75000D01*
G01*
X36290900Y261931200D01*
G75*
G02*
X36365900Y262006200I75000J0D01*
G01*
X36515900Y262006200D01*
G75*
G02*
X36590900Y261931200I0J-75000D01*
G01*
G37*
G36*
G01*
X37990900Y260531200D02*
X37990900Y260381200D01*
G75*
G02*
X37915900Y260306200I-75000J0D01*
G01*
X37265900Y260306200D01*
G75*
G02*
X37190900Y260381200I0J75000D01*
G01*
X37190900Y260531200D01*
G75*
G02*
X37265900Y260606200I75000J0D01*
G01*
X37915900Y260606200D01*
G75*
G02*
X37990900Y260531200I0J-75000D01*
G01*
G37*
G36*
G01*
X37990900Y259881200D02*
X37990900Y259731200D01*
G75*
G02*
X37915900Y259656200I-75000J0D01*
G01*
X37265900Y259656200D01*
G75*
G02*
X37190900Y259731200I0J75000D01*
G01*
X37190900Y259881200D01*
G75*
G02*
X37265900Y259956200I75000J0D01*
G01*
X37915900Y259956200D01*
G75*
G02*
X37990900Y259881200I0J-75000D01*
G01*
G37*
G36*
G01*
X37990900Y259231200D02*
X37990900Y259081200D01*
G75*
G02*
X37915900Y259006200I-75000J0D01*
G01*
X37265900Y259006200D01*
G75*
G02*
X37190900Y259081200I0J75000D01*
G01*
X37190900Y259231200D01*
G75*
G02*
X37265900Y259306200I75000J0D01*
G01*
X37915900Y259306200D01*
G75*
G02*
X37990900Y259231200I0J-75000D01*
G01*
G37*
G36*
G01*
X37990900Y258581200D02*
X37990900Y258431200D01*
G75*
G02*
X37915900Y258356200I-75000J0D01*
G01*
X37265900Y258356200D01*
G75*
G02*
X37190900Y258431200I0J75000D01*
G01*
X37190900Y258581200D01*
G75*
G02*
X37265900Y258656200I75000J0D01*
G01*
X37915900Y258656200D01*
G75*
G02*
X37990900Y258581200I0J-75000D01*
G01*
G37*
G36*
G01*
X37990900Y257931200D02*
X37990900Y257781200D01*
G75*
G02*
X37915900Y257706200I-75000J0D01*
G01*
X37265900Y257706200D01*
G75*
G02*
X37190900Y257781200I0J75000D01*
G01*
X37190900Y257931200D01*
G75*
G02*
X37265900Y258006200I75000J0D01*
G01*
X37915900Y258006200D01*
G75*
G02*
X37990900Y257931200I0J-75000D01*
G01*
G37*
G36*
G01*
X36815900Y260581201D02*
X36815900Y257731199D01*
G75*
G02*
X36565901Y257481200I-249999J0D01*
G01*
X33715899Y257481200D01*
G75*
G02*
X33465900Y257731199I0J249999D01*
G01*
X33465900Y260581201D01*
G75*
G02*
X33715899Y260831200I249999J0D01*
G01*
X36565901Y260831200D01*
G75*
G02*
X36815900Y260581201I0J-249999D01*
G01*
G37*
D16*
X27622500Y261239000D03*
X27622500Y258953000D03*
D15*
X30060900Y261162800D03*
X30060900Y257911600D03*
G36*
G01*
X47241900Y261470200D02*
X45391900Y261470200D01*
G75*
G02*
X45141900Y261720200I0J250000D01*
G01*
X45141900Y263295200D01*
G75*
G02*
X45391900Y263545200I250000J0D01*
G01*
X47241900Y263545200D01*
G75*
G02*
X47491900Y263295200I0J-250000D01*
G01*
X47491900Y261720200D01*
G75*
G02*
X47241900Y261470200I-250000J0D01*
G01*
G37*
G36*
G01*
X47241900Y256545200D02*
X45391900Y256545200D01*
G75*
G02*
X45141900Y256795200I0J250000D01*
G01*
X45141900Y258370200D01*
G75*
G02*
X45391900Y258620200I250000J0D01*
G01*
X47241900Y258620200D01*
G75*
G02*
X47491900Y258370200I0J-250000D01*
G01*
X47491900Y256795200D01*
G75*
G02*
X47241900Y256545200I-250000J0D01*
G01*
G37*
D17*
X63881000Y211201000D03*
X66167000Y211201000D03*
D16*
X87321000Y216471500D03*
X87321000Y214185500D03*
G36*
G01*
X82654200Y222050900D02*
X82804200Y222050900D01*
G75*
G02*
X82879200Y221975900I0J-75000D01*
G01*
X82879200Y220525900D01*
G75*
G02*
X82804200Y220450900I-75000J0D01*
G01*
X82654200Y220450900D01*
G75*
G02*
X82579200Y220525900I0J75000D01*
G01*
X82579200Y221975900D01*
G75*
G02*
X82654200Y222050900I75000J0D01*
G01*
G37*
G36*
G01*
X82154200Y222050900D02*
X82304200Y222050900D01*
G75*
G02*
X82379200Y221975900I0J-75000D01*
G01*
X82379200Y220525900D01*
G75*
G02*
X82304200Y220450900I-75000J0D01*
G01*
X82154200Y220450900D01*
G75*
G02*
X82079200Y220525900I0J75000D01*
G01*
X82079200Y221975900D01*
G75*
G02*
X82154200Y222050900I75000J0D01*
G01*
G37*
G36*
G01*
X81654200Y222050900D02*
X81804200Y222050900D01*
G75*
G02*
X81879200Y221975900I0J-75000D01*
G01*
X81879200Y220525900D01*
G75*
G02*
X81804200Y220450900I-75000J0D01*
G01*
X81654200Y220450900D01*
G75*
G02*
X81579200Y220525900I0J75000D01*
G01*
X81579200Y221975900D01*
G75*
G02*
X81654200Y222050900I75000J0D01*
G01*
G37*
G36*
G01*
X81154200Y222050900D02*
X81304200Y222050900D01*
G75*
G02*
X81379200Y221975900I0J-75000D01*
G01*
X81379200Y220525900D01*
G75*
G02*
X81304200Y220450900I-75000J0D01*
G01*
X81154200Y220450900D01*
G75*
G02*
X81079200Y220525900I0J75000D01*
G01*
X81079200Y221975900D01*
G75*
G02*
X81154200Y222050900I75000J0D01*
G01*
G37*
G36*
G01*
X80654200Y222050900D02*
X80804200Y222050900D01*
G75*
G02*
X80879200Y221975900I0J-75000D01*
G01*
X80879200Y220525900D01*
G75*
G02*
X80804200Y220450900I-75000J0D01*
G01*
X80654200Y220450900D01*
G75*
G02*
X80579200Y220525900I0J75000D01*
G01*
X80579200Y221975900D01*
G75*
G02*
X80654200Y222050900I75000J0D01*
G01*
G37*
G36*
G01*
X80154200Y222050900D02*
X80304200Y222050900D01*
G75*
G02*
X80379200Y221975900I0J-75000D01*
G01*
X80379200Y220525900D01*
G75*
G02*
X80304200Y220450900I-75000J0D01*
G01*
X80154200Y220450900D01*
G75*
G02*
X80079200Y220525900I0J75000D01*
G01*
X80079200Y221975900D01*
G75*
G02*
X80154200Y222050900I75000J0D01*
G01*
G37*
G36*
G01*
X79654200Y222050900D02*
X79804200Y222050900D01*
G75*
G02*
X79879200Y221975900I0J-75000D01*
G01*
X79879200Y220525900D01*
G75*
G02*
X79804200Y220450900I-75000J0D01*
G01*
X79654200Y220450900D01*
G75*
G02*
X79579200Y220525900I0J75000D01*
G01*
X79579200Y221975900D01*
G75*
G02*
X79654200Y222050900I75000J0D01*
G01*
G37*
G36*
G01*
X79154200Y222050900D02*
X79304200Y222050900D01*
G75*
G02*
X79379200Y221975900I0J-75000D01*
G01*
X79379200Y220525900D01*
G75*
G02*
X79304200Y220450900I-75000J0D01*
G01*
X79154200Y220450900D01*
G75*
G02*
X79079200Y220525900I0J75000D01*
G01*
X79079200Y221975900D01*
G75*
G02*
X79154200Y222050900I75000J0D01*
G01*
G37*
G36*
G01*
X78654200Y222050900D02*
X78804200Y222050900D01*
G75*
G02*
X78879200Y221975900I0J-75000D01*
G01*
X78879200Y220525900D01*
G75*
G02*
X78804200Y220450900I-75000J0D01*
G01*
X78654200Y220450900D01*
G75*
G02*
X78579200Y220525900I0J75000D01*
G01*
X78579200Y221975900D01*
G75*
G02*
X78654200Y222050900I75000J0D01*
G01*
G37*
G36*
G01*
X78154200Y222050900D02*
X78304200Y222050900D01*
G75*
G02*
X78379200Y221975900I0J-75000D01*
G01*
X78379200Y220525900D01*
G75*
G02*
X78304200Y220450900I-75000J0D01*
G01*
X78154200Y220450900D01*
G75*
G02*
X78079200Y220525900I0J75000D01*
G01*
X78079200Y221975900D01*
G75*
G02*
X78154200Y222050900I75000J0D01*
G01*
G37*
G36*
G01*
X77654200Y222050900D02*
X77804200Y222050900D01*
G75*
G02*
X77879200Y221975900I0J-75000D01*
G01*
X77879200Y220525900D01*
G75*
G02*
X77804200Y220450900I-75000J0D01*
G01*
X77654200Y220450900D01*
G75*
G02*
X77579200Y220525900I0J75000D01*
G01*
X77579200Y221975900D01*
G75*
G02*
X77654200Y222050900I75000J0D01*
G01*
G37*
G36*
G01*
X77154200Y222050900D02*
X77304200Y222050900D01*
G75*
G02*
X77379200Y221975900I0J-75000D01*
G01*
X77379200Y220525900D01*
G75*
G02*
X77304200Y220450900I-75000J0D01*
G01*
X77154200Y220450900D01*
G75*
G02*
X77079200Y220525900I0J75000D01*
G01*
X77079200Y221975900D01*
G75*
G02*
X77154200Y222050900I75000J0D01*
G01*
G37*
G36*
G01*
X76654200Y222050900D02*
X76804200Y222050900D01*
G75*
G02*
X76879200Y221975900I0J-75000D01*
G01*
X76879200Y220525900D01*
G75*
G02*
X76804200Y220450900I-75000J0D01*
G01*
X76654200Y220450900D01*
G75*
G02*
X76579200Y220525900I0J75000D01*
G01*
X76579200Y221975900D01*
G75*
G02*
X76654200Y222050900I75000J0D01*
G01*
G37*
G36*
G01*
X76154200Y222050900D02*
X76304200Y222050900D01*
G75*
G02*
X76379200Y221975900I0J-75000D01*
G01*
X76379200Y220525900D01*
G75*
G02*
X76304200Y220450900I-75000J0D01*
G01*
X76154200Y220450900D01*
G75*
G02*
X76079200Y220525900I0J75000D01*
G01*
X76079200Y221975900D01*
G75*
G02*
X76154200Y222050900I75000J0D01*
G01*
G37*
G36*
G01*
X75654200Y222050900D02*
X75804200Y222050900D01*
G75*
G02*
X75879200Y221975900I0J-75000D01*
G01*
X75879200Y220525900D01*
G75*
G02*
X75804200Y220450900I-75000J0D01*
G01*
X75654200Y220450900D01*
G75*
G02*
X75579200Y220525900I0J75000D01*
G01*
X75579200Y221975900D01*
G75*
G02*
X75654200Y222050900I75000J0D01*
G01*
G37*
G36*
G01*
X75154200Y222050900D02*
X75304200Y222050900D01*
G75*
G02*
X75379200Y221975900I0J-75000D01*
G01*
X75379200Y220525900D01*
G75*
G02*
X75304200Y220450900I-75000J0D01*
G01*
X75154200Y220450900D01*
G75*
G02*
X75079200Y220525900I0J75000D01*
G01*
X75079200Y221975900D01*
G75*
G02*
X75154200Y222050900I75000J0D01*
G01*
G37*
G36*
G01*
X74654200Y222050900D02*
X74804200Y222050900D01*
G75*
G02*
X74879200Y221975900I0J-75000D01*
G01*
X74879200Y220525900D01*
G75*
G02*
X74804200Y220450900I-75000J0D01*
G01*
X74654200Y220450900D01*
G75*
G02*
X74579200Y220525900I0J75000D01*
G01*
X74579200Y221975900D01*
G75*
G02*
X74654200Y222050900I75000J0D01*
G01*
G37*
G36*
G01*
X74154200Y222050900D02*
X74304200Y222050900D01*
G75*
G02*
X74379200Y221975900I0J-75000D01*
G01*
X74379200Y220525900D01*
G75*
G02*
X74304200Y220450900I-75000J0D01*
G01*
X74154200Y220450900D01*
G75*
G02*
X74079200Y220525900I0J75000D01*
G01*
X74079200Y221975900D01*
G75*
G02*
X74154200Y222050900I75000J0D01*
G01*
G37*
G36*
G01*
X73654200Y222050900D02*
X73804200Y222050900D01*
G75*
G02*
X73879200Y221975900I0J-75000D01*
G01*
X73879200Y220525900D01*
G75*
G02*
X73804200Y220450900I-75000J0D01*
G01*
X73654200Y220450900D01*
G75*
G02*
X73579200Y220525900I0J75000D01*
G01*
X73579200Y221975900D01*
G75*
G02*
X73654200Y222050900I75000J0D01*
G01*
G37*
G36*
G01*
X73154200Y222050900D02*
X73304200Y222050900D01*
G75*
G02*
X73379200Y221975900I0J-75000D01*
G01*
X73379200Y220525900D01*
G75*
G02*
X73304200Y220450900I-75000J0D01*
G01*
X73154200Y220450900D01*
G75*
G02*
X73079200Y220525900I0J75000D01*
G01*
X73079200Y221975900D01*
G75*
G02*
X73154200Y222050900I75000J0D01*
G01*
G37*
G36*
G01*
X72654200Y222050900D02*
X72804200Y222050900D01*
G75*
G02*
X72879200Y221975900I0J-75000D01*
G01*
X72879200Y220525900D01*
G75*
G02*
X72804200Y220450900I-75000J0D01*
G01*
X72654200Y220450900D01*
G75*
G02*
X72579200Y220525900I0J75000D01*
G01*
X72579200Y221975900D01*
G75*
G02*
X72654200Y222050900I75000J0D01*
G01*
G37*
G36*
G01*
X72154200Y222050900D02*
X72304200Y222050900D01*
G75*
G02*
X72379200Y221975900I0J-75000D01*
G01*
X72379200Y220525900D01*
G75*
G02*
X72304200Y220450900I-75000J0D01*
G01*
X72154200Y220450900D01*
G75*
G02*
X72079200Y220525900I0J75000D01*
G01*
X72079200Y221975900D01*
G75*
G02*
X72154200Y222050900I75000J0D01*
G01*
G37*
G36*
G01*
X71654200Y222050900D02*
X71804200Y222050900D01*
G75*
G02*
X71879200Y221975900I0J-75000D01*
G01*
X71879200Y220525900D01*
G75*
G02*
X71804200Y220450900I-75000J0D01*
G01*
X71654200Y220450900D01*
G75*
G02*
X71579200Y220525900I0J75000D01*
G01*
X71579200Y221975900D01*
G75*
G02*
X71654200Y222050900I75000J0D01*
G01*
G37*
G36*
G01*
X71154200Y222050900D02*
X71304200Y222050900D01*
G75*
G02*
X71379200Y221975900I0J-75000D01*
G01*
X71379200Y220525900D01*
G75*
G02*
X71304200Y220450900I-75000J0D01*
G01*
X71154200Y220450900D01*
G75*
G02*
X71079200Y220525900I0J75000D01*
G01*
X71079200Y221975900D01*
G75*
G02*
X71154200Y222050900I75000J0D01*
G01*
G37*
G36*
G01*
X70654200Y222050900D02*
X70804200Y222050900D01*
G75*
G02*
X70879200Y221975900I0J-75000D01*
G01*
X70879200Y220525900D01*
G75*
G02*
X70804200Y220450900I-75000J0D01*
G01*
X70654200Y220450900D01*
G75*
G02*
X70579200Y220525900I0J75000D01*
G01*
X70579200Y221975900D01*
G75*
G02*
X70654200Y222050900I75000J0D01*
G01*
G37*
G36*
G01*
X68329200Y219725900D02*
X69779200Y219725900D01*
G75*
G02*
X69854200Y219650900I0J-75000D01*
G01*
X69854200Y219500900D01*
G75*
G02*
X69779200Y219425900I-75000J0D01*
G01*
X68329200Y219425900D01*
G75*
G02*
X68254200Y219500900I0J75000D01*
G01*
X68254200Y219650900D01*
G75*
G02*
X68329200Y219725900I75000J0D01*
G01*
G37*
G36*
G01*
X68329200Y219225900D02*
X69779200Y219225900D01*
G75*
G02*
X69854200Y219150900I0J-75000D01*
G01*
X69854200Y219000900D01*
G75*
G02*
X69779200Y218925900I-75000J0D01*
G01*
X68329200Y218925900D01*
G75*
G02*
X68254200Y219000900I0J75000D01*
G01*
X68254200Y219150900D01*
G75*
G02*
X68329200Y219225900I75000J0D01*
G01*
G37*
G36*
G01*
X68329200Y218725900D02*
X69779200Y218725900D01*
G75*
G02*
X69854200Y218650900I0J-75000D01*
G01*
X69854200Y218500900D01*
G75*
G02*
X69779200Y218425900I-75000J0D01*
G01*
X68329200Y218425900D01*
G75*
G02*
X68254200Y218500900I0J75000D01*
G01*
X68254200Y218650900D01*
G75*
G02*
X68329200Y218725900I75000J0D01*
G01*
G37*
G36*
G01*
X68329200Y218225900D02*
X69779200Y218225900D01*
G75*
G02*
X69854200Y218150900I0J-75000D01*
G01*
X69854200Y218000900D01*
G75*
G02*
X69779200Y217925900I-75000J0D01*
G01*
X68329200Y217925900D01*
G75*
G02*
X68254200Y218000900I0J75000D01*
G01*
X68254200Y218150900D01*
G75*
G02*
X68329200Y218225900I75000J0D01*
G01*
G37*
G36*
G01*
X68329200Y217725900D02*
X69779200Y217725900D01*
G75*
G02*
X69854200Y217650900I0J-75000D01*
G01*
X69854200Y217500900D01*
G75*
G02*
X69779200Y217425900I-75000J0D01*
G01*
X68329200Y217425900D01*
G75*
G02*
X68254200Y217500900I0J75000D01*
G01*
X68254200Y217650900D01*
G75*
G02*
X68329200Y217725900I75000J0D01*
G01*
G37*
G36*
G01*
X68329200Y217225900D02*
X69779200Y217225900D01*
G75*
G02*
X69854200Y217150900I0J-75000D01*
G01*
X69854200Y217000900D01*
G75*
G02*
X69779200Y216925900I-75000J0D01*
G01*
X68329200Y216925900D01*
G75*
G02*
X68254200Y217000900I0J75000D01*
G01*
X68254200Y217150900D01*
G75*
G02*
X68329200Y217225900I75000J0D01*
G01*
G37*
G36*
G01*
X68329200Y216725900D02*
X69779200Y216725900D01*
G75*
G02*
X69854200Y216650900I0J-75000D01*
G01*
X69854200Y216500900D01*
G75*
G02*
X69779200Y216425900I-75000J0D01*
G01*
X68329200Y216425900D01*
G75*
G02*
X68254200Y216500900I0J75000D01*
G01*
X68254200Y216650900D01*
G75*
G02*
X68329200Y216725900I75000J0D01*
G01*
G37*
G36*
G01*
X68329200Y216225900D02*
X69779200Y216225900D01*
G75*
G02*
X69854200Y216150900I0J-75000D01*
G01*
X69854200Y216000900D01*
G75*
G02*
X69779200Y215925900I-75000J0D01*
G01*
X68329200Y215925900D01*
G75*
G02*
X68254200Y216000900I0J75000D01*
G01*
X68254200Y216150900D01*
G75*
G02*
X68329200Y216225900I75000J0D01*
G01*
G37*
G36*
G01*
X68329200Y215725900D02*
X69779200Y215725900D01*
G75*
G02*
X69854200Y215650900I0J-75000D01*
G01*
X69854200Y215500900D01*
G75*
G02*
X69779200Y215425900I-75000J0D01*
G01*
X68329200Y215425900D01*
G75*
G02*
X68254200Y215500900I0J75000D01*
G01*
X68254200Y215650900D01*
G75*
G02*
X68329200Y215725900I75000J0D01*
G01*
G37*
G36*
G01*
X68329200Y215225900D02*
X69779200Y215225900D01*
G75*
G02*
X69854200Y215150900I0J-75000D01*
G01*
X69854200Y215000900D01*
G75*
G02*
X69779200Y214925900I-75000J0D01*
G01*
X68329200Y214925900D01*
G75*
G02*
X68254200Y215000900I0J75000D01*
G01*
X68254200Y215150900D01*
G75*
G02*
X68329200Y215225900I75000J0D01*
G01*
G37*
G36*
G01*
X68329200Y214725900D02*
X69779200Y214725900D01*
G75*
G02*
X69854200Y214650900I0J-75000D01*
G01*
X69854200Y214500900D01*
G75*
G02*
X69779200Y214425900I-75000J0D01*
G01*
X68329200Y214425900D01*
G75*
G02*
X68254200Y214500900I0J75000D01*
G01*
X68254200Y214650900D01*
G75*
G02*
X68329200Y214725900I75000J0D01*
G01*
G37*
G36*
G01*
X68329200Y214225900D02*
X69779200Y214225900D01*
G75*
G02*
X69854200Y214150900I0J-75000D01*
G01*
X69854200Y214000900D01*
G75*
G02*
X69779200Y213925900I-75000J0D01*
G01*
X68329200Y213925900D01*
G75*
G02*
X68254200Y214000900I0J75000D01*
G01*
X68254200Y214150900D01*
G75*
G02*
X68329200Y214225900I75000J0D01*
G01*
G37*
G36*
G01*
X68329200Y213725900D02*
X69779200Y213725900D01*
G75*
G02*
X69854200Y213650900I0J-75000D01*
G01*
X69854200Y213500900D01*
G75*
G02*
X69779200Y213425900I-75000J0D01*
G01*
X68329200Y213425900D01*
G75*
G02*
X68254200Y213500900I0J75000D01*
G01*
X68254200Y213650900D01*
G75*
G02*
X68329200Y213725900I75000J0D01*
G01*
G37*
G36*
G01*
X68329200Y213225900D02*
X69779200Y213225900D01*
G75*
G02*
X69854200Y213150900I0J-75000D01*
G01*
X69854200Y213000900D01*
G75*
G02*
X69779200Y212925900I-75000J0D01*
G01*
X68329200Y212925900D01*
G75*
G02*
X68254200Y213000900I0J75000D01*
G01*
X68254200Y213150900D01*
G75*
G02*
X68329200Y213225900I75000J0D01*
G01*
G37*
G36*
G01*
X68329200Y212725900D02*
X69779200Y212725900D01*
G75*
G02*
X69854200Y212650900I0J-75000D01*
G01*
X69854200Y212500900D01*
G75*
G02*
X69779200Y212425900I-75000J0D01*
G01*
X68329200Y212425900D01*
G75*
G02*
X68254200Y212500900I0J75000D01*
G01*
X68254200Y212650900D01*
G75*
G02*
X68329200Y212725900I75000J0D01*
G01*
G37*
G36*
G01*
X68329200Y212225900D02*
X69779200Y212225900D01*
G75*
G02*
X69854200Y212150900I0J-75000D01*
G01*
X69854200Y212000900D01*
G75*
G02*
X69779200Y211925900I-75000J0D01*
G01*
X68329200Y211925900D01*
G75*
G02*
X68254200Y212000900I0J75000D01*
G01*
X68254200Y212150900D01*
G75*
G02*
X68329200Y212225900I75000J0D01*
G01*
G37*
G36*
G01*
X68329200Y211725900D02*
X69779200Y211725900D01*
G75*
G02*
X69854200Y211650900I0J-75000D01*
G01*
X69854200Y211500900D01*
G75*
G02*
X69779200Y211425900I-75000J0D01*
G01*
X68329200Y211425900D01*
G75*
G02*
X68254200Y211500900I0J75000D01*
G01*
X68254200Y211650900D01*
G75*
G02*
X68329200Y211725900I75000J0D01*
G01*
G37*
G36*
G01*
X68329200Y211225900D02*
X69779200Y211225900D01*
G75*
G02*
X69854200Y211150900I0J-75000D01*
G01*
X69854200Y211000900D01*
G75*
G02*
X69779200Y210925900I-75000J0D01*
G01*
X68329200Y210925900D01*
G75*
G02*
X68254200Y211000900I0J75000D01*
G01*
X68254200Y211150900D01*
G75*
G02*
X68329200Y211225900I75000J0D01*
G01*
G37*
G36*
G01*
X68329200Y210725900D02*
X69779200Y210725900D01*
G75*
G02*
X69854200Y210650900I0J-75000D01*
G01*
X69854200Y210500900D01*
G75*
G02*
X69779200Y210425900I-75000J0D01*
G01*
X68329200Y210425900D01*
G75*
G02*
X68254200Y210500900I0J75000D01*
G01*
X68254200Y210650900D01*
G75*
G02*
X68329200Y210725900I75000J0D01*
G01*
G37*
G36*
G01*
X68329200Y210225900D02*
X69779200Y210225900D01*
G75*
G02*
X69854200Y210150900I0J-75000D01*
G01*
X69854200Y210000900D01*
G75*
G02*
X69779200Y209925900I-75000J0D01*
G01*
X68329200Y209925900D01*
G75*
G02*
X68254200Y210000900I0J75000D01*
G01*
X68254200Y210150900D01*
G75*
G02*
X68329200Y210225900I75000J0D01*
G01*
G37*
G36*
G01*
X68329200Y209725900D02*
X69779200Y209725900D01*
G75*
G02*
X69854200Y209650900I0J-75000D01*
G01*
X69854200Y209500900D01*
G75*
G02*
X69779200Y209425900I-75000J0D01*
G01*
X68329200Y209425900D01*
G75*
G02*
X68254200Y209500900I0J75000D01*
G01*
X68254200Y209650900D01*
G75*
G02*
X68329200Y209725900I75000J0D01*
G01*
G37*
G36*
G01*
X68329200Y209225900D02*
X69779200Y209225900D01*
G75*
G02*
X69854200Y209150900I0J-75000D01*
G01*
X69854200Y209000900D01*
G75*
G02*
X69779200Y208925900I-75000J0D01*
G01*
X68329200Y208925900D01*
G75*
G02*
X68254200Y209000900I0J75000D01*
G01*
X68254200Y209150900D01*
G75*
G02*
X68329200Y209225900I75000J0D01*
G01*
G37*
G36*
G01*
X68329200Y208725900D02*
X69779200Y208725900D01*
G75*
G02*
X69854200Y208650900I0J-75000D01*
G01*
X69854200Y208500900D01*
G75*
G02*
X69779200Y208425900I-75000J0D01*
G01*
X68329200Y208425900D01*
G75*
G02*
X68254200Y208500900I0J75000D01*
G01*
X68254200Y208650900D01*
G75*
G02*
X68329200Y208725900I75000J0D01*
G01*
G37*
G36*
G01*
X68329200Y208225900D02*
X69779200Y208225900D01*
G75*
G02*
X69854200Y208150900I0J-75000D01*
G01*
X69854200Y208000900D01*
G75*
G02*
X69779200Y207925900I-75000J0D01*
G01*
X68329200Y207925900D01*
G75*
G02*
X68254200Y208000900I0J75000D01*
G01*
X68254200Y208150900D01*
G75*
G02*
X68329200Y208225900I75000J0D01*
G01*
G37*
G36*
G01*
X68329200Y207725900D02*
X69779200Y207725900D01*
G75*
G02*
X69854200Y207650900I0J-75000D01*
G01*
X69854200Y207500900D01*
G75*
G02*
X69779200Y207425900I-75000J0D01*
G01*
X68329200Y207425900D01*
G75*
G02*
X68254200Y207500900I0J75000D01*
G01*
X68254200Y207650900D01*
G75*
G02*
X68329200Y207725900I75000J0D01*
G01*
G37*
G36*
G01*
X70654200Y206700900D02*
X70804200Y206700900D01*
G75*
G02*
X70879200Y206625900I0J-75000D01*
G01*
X70879200Y205175900D01*
G75*
G02*
X70804200Y205100900I-75000J0D01*
G01*
X70654200Y205100900D01*
G75*
G02*
X70579200Y205175900I0J75000D01*
G01*
X70579200Y206625900D01*
G75*
G02*
X70654200Y206700900I75000J0D01*
G01*
G37*
G36*
G01*
X71154200Y206700900D02*
X71304200Y206700900D01*
G75*
G02*
X71379200Y206625900I0J-75000D01*
G01*
X71379200Y205175900D01*
G75*
G02*
X71304200Y205100900I-75000J0D01*
G01*
X71154200Y205100900D01*
G75*
G02*
X71079200Y205175900I0J75000D01*
G01*
X71079200Y206625900D01*
G75*
G02*
X71154200Y206700900I75000J0D01*
G01*
G37*
G36*
G01*
X71654200Y206700900D02*
X71804200Y206700900D01*
G75*
G02*
X71879200Y206625900I0J-75000D01*
G01*
X71879200Y205175900D01*
G75*
G02*
X71804200Y205100900I-75000J0D01*
G01*
X71654200Y205100900D01*
G75*
G02*
X71579200Y205175900I0J75000D01*
G01*
X71579200Y206625900D01*
G75*
G02*
X71654200Y206700900I75000J0D01*
G01*
G37*
G36*
G01*
X72154200Y206700900D02*
X72304200Y206700900D01*
G75*
G02*
X72379200Y206625900I0J-75000D01*
G01*
X72379200Y205175900D01*
G75*
G02*
X72304200Y205100900I-75000J0D01*
G01*
X72154200Y205100900D01*
G75*
G02*
X72079200Y205175900I0J75000D01*
G01*
X72079200Y206625900D01*
G75*
G02*
X72154200Y206700900I75000J0D01*
G01*
G37*
G36*
G01*
X72654200Y206700900D02*
X72804200Y206700900D01*
G75*
G02*
X72879200Y206625900I0J-75000D01*
G01*
X72879200Y205175900D01*
G75*
G02*
X72804200Y205100900I-75000J0D01*
G01*
X72654200Y205100900D01*
G75*
G02*
X72579200Y205175900I0J75000D01*
G01*
X72579200Y206625900D01*
G75*
G02*
X72654200Y206700900I75000J0D01*
G01*
G37*
G36*
G01*
X73154200Y206700900D02*
X73304200Y206700900D01*
G75*
G02*
X73379200Y206625900I0J-75000D01*
G01*
X73379200Y205175900D01*
G75*
G02*
X73304200Y205100900I-75000J0D01*
G01*
X73154200Y205100900D01*
G75*
G02*
X73079200Y205175900I0J75000D01*
G01*
X73079200Y206625900D01*
G75*
G02*
X73154200Y206700900I75000J0D01*
G01*
G37*
G36*
G01*
X73654200Y206700900D02*
X73804200Y206700900D01*
G75*
G02*
X73879200Y206625900I0J-75000D01*
G01*
X73879200Y205175900D01*
G75*
G02*
X73804200Y205100900I-75000J0D01*
G01*
X73654200Y205100900D01*
G75*
G02*
X73579200Y205175900I0J75000D01*
G01*
X73579200Y206625900D01*
G75*
G02*
X73654200Y206700900I75000J0D01*
G01*
G37*
G36*
G01*
X74154200Y206700900D02*
X74304200Y206700900D01*
G75*
G02*
X74379200Y206625900I0J-75000D01*
G01*
X74379200Y205175900D01*
G75*
G02*
X74304200Y205100900I-75000J0D01*
G01*
X74154200Y205100900D01*
G75*
G02*
X74079200Y205175900I0J75000D01*
G01*
X74079200Y206625900D01*
G75*
G02*
X74154200Y206700900I75000J0D01*
G01*
G37*
G36*
G01*
X74654200Y206700900D02*
X74804200Y206700900D01*
G75*
G02*
X74879200Y206625900I0J-75000D01*
G01*
X74879200Y205175900D01*
G75*
G02*
X74804200Y205100900I-75000J0D01*
G01*
X74654200Y205100900D01*
G75*
G02*
X74579200Y205175900I0J75000D01*
G01*
X74579200Y206625900D01*
G75*
G02*
X74654200Y206700900I75000J0D01*
G01*
G37*
G36*
G01*
X75154200Y206700900D02*
X75304200Y206700900D01*
G75*
G02*
X75379200Y206625900I0J-75000D01*
G01*
X75379200Y205175900D01*
G75*
G02*
X75304200Y205100900I-75000J0D01*
G01*
X75154200Y205100900D01*
G75*
G02*
X75079200Y205175900I0J75000D01*
G01*
X75079200Y206625900D01*
G75*
G02*
X75154200Y206700900I75000J0D01*
G01*
G37*
G36*
G01*
X75654200Y206700900D02*
X75804200Y206700900D01*
G75*
G02*
X75879200Y206625900I0J-75000D01*
G01*
X75879200Y205175900D01*
G75*
G02*
X75804200Y205100900I-75000J0D01*
G01*
X75654200Y205100900D01*
G75*
G02*
X75579200Y205175900I0J75000D01*
G01*
X75579200Y206625900D01*
G75*
G02*
X75654200Y206700900I75000J0D01*
G01*
G37*
G36*
G01*
X76154200Y206700900D02*
X76304200Y206700900D01*
G75*
G02*
X76379200Y206625900I0J-75000D01*
G01*
X76379200Y205175900D01*
G75*
G02*
X76304200Y205100900I-75000J0D01*
G01*
X76154200Y205100900D01*
G75*
G02*
X76079200Y205175900I0J75000D01*
G01*
X76079200Y206625900D01*
G75*
G02*
X76154200Y206700900I75000J0D01*
G01*
G37*
G36*
G01*
X76654200Y206700900D02*
X76804200Y206700900D01*
G75*
G02*
X76879200Y206625900I0J-75000D01*
G01*
X76879200Y205175900D01*
G75*
G02*
X76804200Y205100900I-75000J0D01*
G01*
X76654200Y205100900D01*
G75*
G02*
X76579200Y205175900I0J75000D01*
G01*
X76579200Y206625900D01*
G75*
G02*
X76654200Y206700900I75000J0D01*
G01*
G37*
G36*
G01*
X77154200Y206700900D02*
X77304200Y206700900D01*
G75*
G02*
X77379200Y206625900I0J-75000D01*
G01*
X77379200Y205175900D01*
G75*
G02*
X77304200Y205100900I-75000J0D01*
G01*
X77154200Y205100900D01*
G75*
G02*
X77079200Y205175900I0J75000D01*
G01*
X77079200Y206625900D01*
G75*
G02*
X77154200Y206700900I75000J0D01*
G01*
G37*
G36*
G01*
X77654200Y206700900D02*
X77804200Y206700900D01*
G75*
G02*
X77879200Y206625900I0J-75000D01*
G01*
X77879200Y205175900D01*
G75*
G02*
X77804200Y205100900I-75000J0D01*
G01*
X77654200Y205100900D01*
G75*
G02*
X77579200Y205175900I0J75000D01*
G01*
X77579200Y206625900D01*
G75*
G02*
X77654200Y206700900I75000J0D01*
G01*
G37*
G36*
G01*
X78154200Y206700900D02*
X78304200Y206700900D01*
G75*
G02*
X78379200Y206625900I0J-75000D01*
G01*
X78379200Y205175900D01*
G75*
G02*
X78304200Y205100900I-75000J0D01*
G01*
X78154200Y205100900D01*
G75*
G02*
X78079200Y205175900I0J75000D01*
G01*
X78079200Y206625900D01*
G75*
G02*
X78154200Y206700900I75000J0D01*
G01*
G37*
G36*
G01*
X78654200Y206700900D02*
X78804200Y206700900D01*
G75*
G02*
X78879200Y206625900I0J-75000D01*
G01*
X78879200Y205175900D01*
G75*
G02*
X78804200Y205100900I-75000J0D01*
G01*
X78654200Y205100900D01*
G75*
G02*
X78579200Y205175900I0J75000D01*
G01*
X78579200Y206625900D01*
G75*
G02*
X78654200Y206700900I75000J0D01*
G01*
G37*
G36*
G01*
X79154200Y206700900D02*
X79304200Y206700900D01*
G75*
G02*
X79379200Y206625900I0J-75000D01*
G01*
X79379200Y205175900D01*
G75*
G02*
X79304200Y205100900I-75000J0D01*
G01*
X79154200Y205100900D01*
G75*
G02*
X79079200Y205175900I0J75000D01*
G01*
X79079200Y206625900D01*
G75*
G02*
X79154200Y206700900I75000J0D01*
G01*
G37*
G36*
G01*
X79654200Y206700900D02*
X79804200Y206700900D01*
G75*
G02*
X79879200Y206625900I0J-75000D01*
G01*
X79879200Y205175900D01*
G75*
G02*
X79804200Y205100900I-75000J0D01*
G01*
X79654200Y205100900D01*
G75*
G02*
X79579200Y205175900I0J75000D01*
G01*
X79579200Y206625900D01*
G75*
G02*
X79654200Y206700900I75000J0D01*
G01*
G37*
G36*
G01*
X80154200Y206700900D02*
X80304200Y206700900D01*
G75*
G02*
X80379200Y206625900I0J-75000D01*
G01*
X80379200Y205175900D01*
G75*
G02*
X80304200Y205100900I-75000J0D01*
G01*
X80154200Y205100900D01*
G75*
G02*
X80079200Y205175900I0J75000D01*
G01*
X80079200Y206625900D01*
G75*
G02*
X80154200Y206700900I75000J0D01*
G01*
G37*
G36*
G01*
X80654200Y206700900D02*
X80804200Y206700900D01*
G75*
G02*
X80879200Y206625900I0J-75000D01*
G01*
X80879200Y205175900D01*
G75*
G02*
X80804200Y205100900I-75000J0D01*
G01*
X80654200Y205100900D01*
G75*
G02*
X80579200Y205175900I0J75000D01*
G01*
X80579200Y206625900D01*
G75*
G02*
X80654200Y206700900I75000J0D01*
G01*
G37*
G36*
G01*
X81154200Y206700900D02*
X81304200Y206700900D01*
G75*
G02*
X81379200Y206625900I0J-75000D01*
G01*
X81379200Y205175900D01*
G75*
G02*
X81304200Y205100900I-75000J0D01*
G01*
X81154200Y205100900D01*
G75*
G02*
X81079200Y205175900I0J75000D01*
G01*
X81079200Y206625900D01*
G75*
G02*
X81154200Y206700900I75000J0D01*
G01*
G37*
G36*
G01*
X81654200Y206700900D02*
X81804200Y206700900D01*
G75*
G02*
X81879200Y206625900I0J-75000D01*
G01*
X81879200Y205175900D01*
G75*
G02*
X81804200Y205100900I-75000J0D01*
G01*
X81654200Y205100900D01*
G75*
G02*
X81579200Y205175900I0J75000D01*
G01*
X81579200Y206625900D01*
G75*
G02*
X81654200Y206700900I75000J0D01*
G01*
G37*
G36*
G01*
X82154200Y206700900D02*
X82304200Y206700900D01*
G75*
G02*
X82379200Y206625900I0J-75000D01*
G01*
X82379200Y205175900D01*
G75*
G02*
X82304200Y205100900I-75000J0D01*
G01*
X82154200Y205100900D01*
G75*
G02*
X82079200Y205175900I0J75000D01*
G01*
X82079200Y206625900D01*
G75*
G02*
X82154200Y206700900I75000J0D01*
G01*
G37*
G36*
G01*
X82654200Y206700900D02*
X82804200Y206700900D01*
G75*
G02*
X82879200Y206625900I0J-75000D01*
G01*
X82879200Y205175900D01*
G75*
G02*
X82804200Y205100900I-75000J0D01*
G01*
X82654200Y205100900D01*
G75*
G02*
X82579200Y205175900I0J75000D01*
G01*
X82579200Y206625900D01*
G75*
G02*
X82654200Y206700900I75000J0D01*
G01*
G37*
G36*
G01*
X83679200Y207725900D02*
X85129200Y207725900D01*
G75*
G02*
X85204200Y207650900I0J-75000D01*
G01*
X85204200Y207500900D01*
G75*
G02*
X85129200Y207425900I-75000J0D01*
G01*
X83679200Y207425900D01*
G75*
G02*
X83604200Y207500900I0J75000D01*
G01*
X83604200Y207650900D01*
G75*
G02*
X83679200Y207725900I75000J0D01*
G01*
G37*
G36*
G01*
X83679200Y208225900D02*
X85129200Y208225900D01*
G75*
G02*
X85204200Y208150900I0J-75000D01*
G01*
X85204200Y208000900D01*
G75*
G02*
X85129200Y207925900I-75000J0D01*
G01*
X83679200Y207925900D01*
G75*
G02*
X83604200Y208000900I0J75000D01*
G01*
X83604200Y208150900D01*
G75*
G02*
X83679200Y208225900I75000J0D01*
G01*
G37*
G36*
G01*
X83679200Y208725900D02*
X85129200Y208725900D01*
G75*
G02*
X85204200Y208650900I0J-75000D01*
G01*
X85204200Y208500900D01*
G75*
G02*
X85129200Y208425900I-75000J0D01*
G01*
X83679200Y208425900D01*
G75*
G02*
X83604200Y208500900I0J75000D01*
G01*
X83604200Y208650900D01*
G75*
G02*
X83679200Y208725900I75000J0D01*
G01*
G37*
G36*
G01*
X83679200Y209225900D02*
X85129200Y209225900D01*
G75*
G02*
X85204200Y209150900I0J-75000D01*
G01*
X85204200Y209000900D01*
G75*
G02*
X85129200Y208925900I-75000J0D01*
G01*
X83679200Y208925900D01*
G75*
G02*
X83604200Y209000900I0J75000D01*
G01*
X83604200Y209150900D01*
G75*
G02*
X83679200Y209225900I75000J0D01*
G01*
G37*
G36*
G01*
X83679200Y209725900D02*
X85129200Y209725900D01*
G75*
G02*
X85204200Y209650900I0J-75000D01*
G01*
X85204200Y209500900D01*
G75*
G02*
X85129200Y209425900I-75000J0D01*
G01*
X83679200Y209425900D01*
G75*
G02*
X83604200Y209500900I0J75000D01*
G01*
X83604200Y209650900D01*
G75*
G02*
X83679200Y209725900I75000J0D01*
G01*
G37*
G36*
G01*
X83679200Y210225900D02*
X85129200Y210225900D01*
G75*
G02*
X85204200Y210150900I0J-75000D01*
G01*
X85204200Y210000900D01*
G75*
G02*
X85129200Y209925900I-75000J0D01*
G01*
X83679200Y209925900D01*
G75*
G02*
X83604200Y210000900I0J75000D01*
G01*
X83604200Y210150900D01*
G75*
G02*
X83679200Y210225900I75000J0D01*
G01*
G37*
G36*
G01*
X83679200Y210725900D02*
X85129200Y210725900D01*
G75*
G02*
X85204200Y210650900I0J-75000D01*
G01*
X85204200Y210500900D01*
G75*
G02*
X85129200Y210425900I-75000J0D01*
G01*
X83679200Y210425900D01*
G75*
G02*
X83604200Y210500900I0J75000D01*
G01*
X83604200Y210650900D01*
G75*
G02*
X83679200Y210725900I75000J0D01*
G01*
G37*
G36*
G01*
X83679200Y211225900D02*
X85129200Y211225900D01*
G75*
G02*
X85204200Y211150900I0J-75000D01*
G01*
X85204200Y211000900D01*
G75*
G02*
X85129200Y210925900I-75000J0D01*
G01*
X83679200Y210925900D01*
G75*
G02*
X83604200Y211000900I0J75000D01*
G01*
X83604200Y211150900D01*
G75*
G02*
X83679200Y211225900I75000J0D01*
G01*
G37*
G36*
G01*
X83679200Y211725900D02*
X85129200Y211725900D01*
G75*
G02*
X85204200Y211650900I0J-75000D01*
G01*
X85204200Y211500900D01*
G75*
G02*
X85129200Y211425900I-75000J0D01*
G01*
X83679200Y211425900D01*
G75*
G02*
X83604200Y211500900I0J75000D01*
G01*
X83604200Y211650900D01*
G75*
G02*
X83679200Y211725900I75000J0D01*
G01*
G37*
G36*
G01*
X83679200Y212225900D02*
X85129200Y212225900D01*
G75*
G02*
X85204200Y212150900I0J-75000D01*
G01*
X85204200Y212000900D01*
G75*
G02*
X85129200Y211925900I-75000J0D01*
G01*
X83679200Y211925900D01*
G75*
G02*
X83604200Y212000900I0J75000D01*
G01*
X83604200Y212150900D01*
G75*
G02*
X83679200Y212225900I75000J0D01*
G01*
G37*
G36*
G01*
X83679200Y212725900D02*
X85129200Y212725900D01*
G75*
G02*
X85204200Y212650900I0J-75000D01*
G01*
X85204200Y212500900D01*
G75*
G02*
X85129200Y212425900I-75000J0D01*
G01*
X83679200Y212425900D01*
G75*
G02*
X83604200Y212500900I0J75000D01*
G01*
X83604200Y212650900D01*
G75*
G02*
X83679200Y212725900I75000J0D01*
G01*
G37*
G36*
G01*
X83679200Y213225900D02*
X85129200Y213225900D01*
G75*
G02*
X85204200Y213150900I0J-75000D01*
G01*
X85204200Y213000900D01*
G75*
G02*
X85129200Y212925900I-75000J0D01*
G01*
X83679200Y212925900D01*
G75*
G02*
X83604200Y213000900I0J75000D01*
G01*
X83604200Y213150900D01*
G75*
G02*
X83679200Y213225900I75000J0D01*
G01*
G37*
G36*
G01*
X83679200Y213725900D02*
X85129200Y213725900D01*
G75*
G02*
X85204200Y213650900I0J-75000D01*
G01*
X85204200Y213500900D01*
G75*
G02*
X85129200Y213425900I-75000J0D01*
G01*
X83679200Y213425900D01*
G75*
G02*
X83604200Y213500900I0J75000D01*
G01*
X83604200Y213650900D01*
G75*
G02*
X83679200Y213725900I75000J0D01*
G01*
G37*
G36*
G01*
X83679200Y214225900D02*
X85129200Y214225900D01*
G75*
G02*
X85204200Y214150900I0J-75000D01*
G01*
X85204200Y214000900D01*
G75*
G02*
X85129200Y213925900I-75000J0D01*
G01*
X83679200Y213925900D01*
G75*
G02*
X83604200Y214000900I0J75000D01*
G01*
X83604200Y214150900D01*
G75*
G02*
X83679200Y214225900I75000J0D01*
G01*
G37*
G36*
G01*
X83679200Y214725900D02*
X85129200Y214725900D01*
G75*
G02*
X85204200Y214650900I0J-75000D01*
G01*
X85204200Y214500900D01*
G75*
G02*
X85129200Y214425900I-75000J0D01*
G01*
X83679200Y214425900D01*
G75*
G02*
X83604200Y214500900I0J75000D01*
G01*
X83604200Y214650900D01*
G75*
G02*
X83679200Y214725900I75000J0D01*
G01*
G37*
G36*
G01*
X83679200Y215225900D02*
X85129200Y215225900D01*
G75*
G02*
X85204200Y215150900I0J-75000D01*
G01*
X85204200Y215000900D01*
G75*
G02*
X85129200Y214925900I-75000J0D01*
G01*
X83679200Y214925900D01*
G75*
G02*
X83604200Y215000900I0J75000D01*
G01*
X83604200Y215150900D01*
G75*
G02*
X83679200Y215225900I75000J0D01*
G01*
G37*
G36*
G01*
X83679200Y215725900D02*
X85129200Y215725900D01*
G75*
G02*
X85204200Y215650900I0J-75000D01*
G01*
X85204200Y215500900D01*
G75*
G02*
X85129200Y215425900I-75000J0D01*
G01*
X83679200Y215425900D01*
G75*
G02*
X83604200Y215500900I0J75000D01*
G01*
X83604200Y215650900D01*
G75*
G02*
X83679200Y215725900I75000J0D01*
G01*
G37*
G36*
G01*
X83679200Y216225900D02*
X85129200Y216225900D01*
G75*
G02*
X85204200Y216150900I0J-75000D01*
G01*
X85204200Y216000900D01*
G75*
G02*
X85129200Y215925900I-75000J0D01*
G01*
X83679200Y215925900D01*
G75*
G02*
X83604200Y216000900I0J75000D01*
G01*
X83604200Y216150900D01*
G75*
G02*
X83679200Y216225900I75000J0D01*
G01*
G37*
G36*
G01*
X83679200Y216725900D02*
X85129200Y216725900D01*
G75*
G02*
X85204200Y216650900I0J-75000D01*
G01*
X85204200Y216500900D01*
G75*
G02*
X85129200Y216425900I-75000J0D01*
G01*
X83679200Y216425900D01*
G75*
G02*
X83604200Y216500900I0J75000D01*
G01*
X83604200Y216650900D01*
G75*
G02*
X83679200Y216725900I75000J0D01*
G01*
G37*
G36*
G01*
X83679200Y217225900D02*
X85129200Y217225900D01*
G75*
G02*
X85204200Y217150900I0J-75000D01*
G01*
X85204200Y217000900D01*
G75*
G02*
X85129200Y216925900I-75000J0D01*
G01*
X83679200Y216925900D01*
G75*
G02*
X83604200Y217000900I0J75000D01*
G01*
X83604200Y217150900D01*
G75*
G02*
X83679200Y217225900I75000J0D01*
G01*
G37*
G36*
G01*
X83679200Y217725900D02*
X85129200Y217725900D01*
G75*
G02*
X85204200Y217650900I0J-75000D01*
G01*
X85204200Y217500900D01*
G75*
G02*
X85129200Y217425900I-75000J0D01*
G01*
X83679200Y217425900D01*
G75*
G02*
X83604200Y217500900I0J75000D01*
G01*
X83604200Y217650900D01*
G75*
G02*
X83679200Y217725900I75000J0D01*
G01*
G37*
G36*
G01*
X83679200Y218225900D02*
X85129200Y218225900D01*
G75*
G02*
X85204200Y218150900I0J-75000D01*
G01*
X85204200Y218000900D01*
G75*
G02*
X85129200Y217925900I-75000J0D01*
G01*
X83679200Y217925900D01*
G75*
G02*
X83604200Y218000900I0J75000D01*
G01*
X83604200Y218150900D01*
G75*
G02*
X83679200Y218225900I75000J0D01*
G01*
G37*
G36*
G01*
X83679200Y218725900D02*
X85129200Y218725900D01*
G75*
G02*
X85204200Y218650900I0J-75000D01*
G01*
X85204200Y218500900D01*
G75*
G02*
X85129200Y218425900I-75000J0D01*
G01*
X83679200Y218425900D01*
G75*
G02*
X83604200Y218500900I0J75000D01*
G01*
X83604200Y218650900D01*
G75*
G02*
X83679200Y218725900I75000J0D01*
G01*
G37*
G36*
G01*
X83679200Y219225900D02*
X85129200Y219225900D01*
G75*
G02*
X85204200Y219150900I0J-75000D01*
G01*
X85204200Y219000900D01*
G75*
G02*
X85129200Y218925900I-75000J0D01*
G01*
X83679200Y218925900D01*
G75*
G02*
X83604200Y219000900I0J75000D01*
G01*
X83604200Y219150900D01*
G75*
G02*
X83679200Y219225900I75000J0D01*
G01*
G37*
G36*
G01*
X83679200Y219725900D02*
X85129200Y219725900D01*
G75*
G02*
X85204200Y219650900I0J-75000D01*
G01*
X85204200Y219500900D01*
G75*
G02*
X85129200Y219425900I-75000J0D01*
G01*
X83679200Y219425900D01*
G75*
G02*
X83604200Y219500900I0J75000D01*
G01*
X83604200Y219650900D01*
G75*
G02*
X83679200Y219725900I75000J0D01*
G01*
G37*
X-4191000Y248666000D03*
X-4191000Y246380000D03*
D18*
X-17750000Y266000000D03*
D19*
X-14250000Y266000000D03*
D17*
X125349000Y242824000D03*
X123063000Y242824000D03*
G36*
G01*
X83276300Y280519400D02*
X83576300Y280519400D01*
G75*
G02*
X83726300Y280369400I0J-150000D01*
G01*
X83726300Y278919400D01*
G75*
G02*
X83576300Y278769400I-150000J0D01*
G01*
X83276300Y278769400D01*
G75*
G02*
X83126300Y278919400I0J150000D01*
G01*
X83126300Y280369400D01*
G75*
G02*
X83276300Y280519400I150000J0D01*
G01*
G37*
G36*
G01*
X82006300Y280519400D02*
X82306300Y280519400D01*
G75*
G02*
X82456300Y280369400I0J-150000D01*
G01*
X82456300Y278919400D01*
G75*
G02*
X82306300Y278769400I-150000J0D01*
G01*
X82006300Y278769400D01*
G75*
G02*
X81856300Y278919400I0J150000D01*
G01*
X81856300Y280369400D01*
G75*
G02*
X82006300Y280519400I150000J0D01*
G01*
G37*
G36*
G01*
X80736300Y280519400D02*
X81036300Y280519400D01*
G75*
G02*
X81186300Y280369400I0J-150000D01*
G01*
X81186300Y278919400D01*
G75*
G02*
X81036300Y278769400I-150000J0D01*
G01*
X80736300Y278769400D01*
G75*
G02*
X80586300Y278919400I0J150000D01*
G01*
X80586300Y280369400D01*
G75*
G02*
X80736300Y280519400I150000J0D01*
G01*
G37*
G36*
G01*
X79466300Y280519400D02*
X79766300Y280519400D01*
G75*
G02*
X79916300Y280369400I0J-150000D01*
G01*
X79916300Y278919400D01*
G75*
G02*
X79766300Y278769400I-150000J0D01*
G01*
X79466300Y278769400D01*
G75*
G02*
X79316300Y278919400I0J150000D01*
G01*
X79316300Y280369400D01*
G75*
G02*
X79466300Y280519400I150000J0D01*
G01*
G37*
G36*
G01*
X79466300Y285669400D02*
X79766300Y285669400D01*
G75*
G02*
X79916300Y285519400I0J-150000D01*
G01*
X79916300Y284069400D01*
G75*
G02*
X79766300Y283919400I-150000J0D01*
G01*
X79466300Y283919400D01*
G75*
G02*
X79316300Y284069400I0J150000D01*
G01*
X79316300Y285519400D01*
G75*
G02*
X79466300Y285669400I150000J0D01*
G01*
G37*
G36*
G01*
X80736300Y285669400D02*
X81036300Y285669400D01*
G75*
G02*
X81186300Y285519400I0J-150000D01*
G01*
X81186300Y284069400D01*
G75*
G02*
X81036300Y283919400I-150000J0D01*
G01*
X80736300Y283919400D01*
G75*
G02*
X80586300Y284069400I0J150000D01*
G01*
X80586300Y285519400D01*
G75*
G02*
X80736300Y285669400I150000J0D01*
G01*
G37*
G36*
G01*
X82006300Y285669400D02*
X82306300Y285669400D01*
G75*
G02*
X82456300Y285519400I0J-150000D01*
G01*
X82456300Y284069400D01*
G75*
G02*
X82306300Y283919400I-150000J0D01*
G01*
X82006300Y283919400D01*
G75*
G02*
X81856300Y284069400I0J150000D01*
G01*
X81856300Y285519400D01*
G75*
G02*
X82006300Y285669400I150000J0D01*
G01*
G37*
G36*
G01*
X83276300Y285669400D02*
X83576300Y285669400D01*
G75*
G02*
X83726300Y285519400I0J-150000D01*
G01*
X83726300Y284069400D01*
G75*
G02*
X83576300Y283919400I-150000J0D01*
G01*
X83276300Y283919400D01*
G75*
G02*
X83126300Y284069400I0J150000D01*
G01*
X83126300Y285519400D01*
G75*
G02*
X83276300Y285669400I150000J0D01*
G01*
G37*
D20*
X63411100Y287298000D03*
X63411100Y284758000D03*
D21*
X63411100Y282218000D03*
D17*
X-12763500Y227266500D03*
X-15049500Y227266500D03*
X-15049500Y230505000D03*
X-12763500Y230505000D03*
D22*
X5223000Y229933500D03*
X7223000Y230883500D03*
X7223000Y228983500D03*
D23*
X6286500Y234426000D03*
X7236500Y232426000D03*
X5336500Y232426000D03*
D24*
X-9594100Y234902700D03*
X2405900Y234902700D03*
X2405900Y232402700D03*
X-9594100Y232402700D03*
X-9594100Y229902700D03*
X2405900Y229902700D03*
X-9594100Y227402700D03*
X2405900Y227402700D03*
D14*
X-18097500Y233045000D03*
D13*
X-18097500Y230505000D03*
X-18097500Y227965000D03*
D14*
X-17395000Y255675000D03*
D13*
X-17395000Y253135000D03*
X-17395000Y250595000D03*
D12*
X-15058200Y251758800D03*
X-15058200Y253058800D03*
X-15058200Y254358800D03*
D25*
X19050000Y205922000D03*
X19050000Y201422000D03*
X12550000Y205922000D03*
X12550000Y201422000D03*
X22456000Y201422000D03*
X22456000Y205922000D03*
X28956000Y201422000D03*
X28956000Y205922000D03*
X32512000Y201367000D03*
X32512000Y205867000D03*
X39012000Y201367000D03*
X39012000Y205867000D03*
D16*
X119862600Y288378900D03*
X119862600Y286092900D03*
D15*
X117449600Y289407600D03*
X117449600Y286156400D03*
D17*
X131546600Y258076700D03*
X133832600Y258076700D03*
D26*
X130518400Y255713000D03*
X133769600Y255713000D03*
D17*
X133731000Y242824000D03*
X131445000Y242824000D03*
D26*
X133625600Y240499900D03*
X130374400Y240499900D03*
D17*
X131381500Y227901500D03*
X133667500Y227901500D03*
D26*
X133625600Y225513900D03*
X130374400Y225513900D03*
D17*
X133667500Y212534500D03*
X131381500Y212534500D03*
D26*
X131064000Y210058000D03*
X134315200Y210058000D03*
X4978400Y274574000D03*
X8229600Y274574000D03*
D17*
X8255000Y277114000D03*
X5969000Y277114000D03*
D26*
X127469900Y291147500D03*
X130721100Y291147500D03*
D17*
X90881200Y219202000D03*
X93167200Y219202000D03*
X124269500Y292506400D03*
X121983500Y292506400D03*
X79574000Y236601000D03*
X77288000Y236601000D03*
X77288000Y234569000D03*
X79574000Y234569000D03*
D16*
X136000000Y290385500D03*
X136000000Y292671500D03*
D26*
X127469900Y284289500D03*
X130721100Y284289500D03*
G36*
G01*
X-8525500Y258142500D02*
X-8525500Y260192500D01*
G75*
G02*
X-8275500Y260442500I250000J0D01*
G01*
X-6700500Y260442500D01*
G75*
G02*
X-6450500Y260192500I0J-250000D01*
G01*
X-6450500Y258142500D01*
G75*
G02*
X-6700500Y257892500I-250000J0D01*
G01*
X-8275500Y257892500D01*
G75*
G02*
X-8525500Y258142500I0J250000D01*
G01*
G37*
G36*
G01*
X-14750500Y258142500D02*
X-14750500Y260192500D01*
G75*
G02*
X-14500500Y260442500I250000J0D01*
G01*
X-12925500Y260442500D01*
G75*
G02*
X-12675500Y260192500I0J-250000D01*
G01*
X-12675500Y258142500D01*
G75*
G02*
X-12925500Y257892500I-250000J0D01*
G01*
X-14500500Y257892500D01*
G75*
G02*
X-14750500Y258142500I0J250000D01*
G01*
G37*
D17*
X-8124000Y255802000D03*
X-10410000Y255802000D03*
D15*
X27673300Y247599200D03*
X27673300Y244348000D03*
D16*
X30213300Y244221000D03*
X30213300Y246507000D03*
X30213300Y242062000D03*
X30213300Y239776000D03*
D15*
X27673300Y242011200D03*
X27673300Y238760000D03*
D16*
X75129000Y234569000D03*
X75129000Y232283000D03*
D17*
X82638900Y224726500D03*
X84924900Y224726500D03*
G36*
G01*
X3906400Y257642800D02*
X3906400Y255792800D01*
G75*
G02*
X3656400Y255542800I-250000J0D01*
G01*
X2081400Y255542800D01*
G75*
G02*
X1831400Y255792800I0J250000D01*
G01*
X1831400Y257642800D01*
G75*
G02*
X2081400Y257892800I250000J0D01*
G01*
X3656400Y257892800D01*
G75*
G02*
X3906400Y257642800I0J-250000D01*
G01*
G37*
G36*
G01*
X-1018600Y257642800D02*
X-1018600Y255792800D01*
G75*
G02*
X-1268600Y255542800I-250000J0D01*
G01*
X-2843600Y255542800D01*
G75*
G02*
X-3093600Y255792800I0J250000D01*
G01*
X-3093600Y257642800D01*
G75*
G02*
X-2843600Y257892800I250000J0D01*
G01*
X-1268600Y257892800D01*
G75*
G02*
X-1018600Y257642800I0J-250000D01*
G01*
G37*
X84924900Y226758500D03*
X82638900Y226758500D03*
D16*
X-6223000Y240665000D03*
X-6223000Y242951000D03*
X-14651800Y247216800D03*
X-14651800Y244930800D03*
X90957400Y284899100D03*
X90957400Y287185100D03*
D15*
X88544400Y284962600D03*
X88544400Y288213800D03*
D17*
X-14524800Y242898800D03*
X-16810800Y242898800D03*
D15*
X108400600Y248168800D03*
X108400600Y251420000D03*
D16*
X110788200Y248092600D03*
X110788200Y250378600D03*
X118763800Y248206900D03*
X118763800Y245920900D03*
D17*
X106355500Y209097500D03*
X104069500Y209097500D03*
D26*
X103040800Y206684500D03*
X106292000Y206684500D03*
D15*
X119062500Y204825600D03*
X119062500Y201574400D03*
D16*
X121539000Y201477500D03*
X121539000Y203763500D03*
X130619500Y199199500D03*
X130619500Y201485500D03*
D15*
X63627000Y209016600D03*
X63627000Y205765400D03*
D26*
X84048600Y203009500D03*
X80797400Y203009500D03*
D17*
X110610000Y211383500D03*
X112896000Y211383500D03*
X139446000Y211582000D03*
X137160000Y211582000D03*
G36*
G01*
X94965400Y293380600D02*
X94965400Y291530600D01*
G75*
G02*
X94715400Y291280600I-250000J0D01*
G01*
X93140400Y291280600D01*
G75*
G02*
X92890400Y291530600I0J250000D01*
G01*
X92890400Y293380600D01*
G75*
G02*
X93140400Y293630600I250000J0D01*
G01*
X94715400Y293630600D01*
G75*
G02*
X94965400Y293380600I0J-250000D01*
G01*
G37*
G36*
G01*
X90040400Y293380600D02*
X90040400Y291530600D01*
G75*
G02*
X89790400Y291280600I-250000J0D01*
G01*
X88215400Y291280600D01*
G75*
G02*
X87965400Y291530600I0J250000D01*
G01*
X87965400Y293380600D01*
G75*
G02*
X88215400Y293630600I250000J0D01*
G01*
X89790400Y293630600D01*
G75*
G02*
X90040400Y293380600I0J-250000D01*
G01*
G37*
D26*
X112515400Y253325000D03*
X115766600Y253325000D03*
D17*
X99098100Y285356300D03*
X101384100Y285356300D03*
D15*
X106000000Y292125600D03*
X106000000Y288874400D03*
D26*
X98691700Y280174700D03*
X95440500Y280174700D03*
D17*
X74875000Y227965000D03*
X72589000Y227965000D03*
X72589000Y229997000D03*
X74875000Y229997000D03*
D16*
X122071000Y206621000D03*
X122071000Y208907000D03*
X128016000Y209169000D03*
X128016000Y206883000D03*
D26*
X136042400Y206756000D03*
X139293600Y206756000D03*
D17*
X74875000Y225933000D03*
X72589000Y225933000D03*
X72589000Y223901000D03*
X74875000Y223901000D03*
D15*
X107664000Y262240400D03*
X107664000Y258989200D03*
D16*
X110064300Y258938400D03*
X110064300Y261224400D03*
D26*
X127900300Y204169900D03*
X124649100Y204169900D03*
D16*
X118179600Y257185800D03*
X118179600Y259471800D03*
D17*
X112896000Y213415500D03*
X110610000Y213415500D03*
X110610000Y215447500D03*
X112896000Y215447500D03*
D26*
X64922400Y203327000D03*
X68173600Y203327000D03*
D16*
X87321000Y218249500D03*
X87321000Y220535500D03*
X86106000Y204978000D03*
X86106000Y202692000D03*
D17*
X65913000Y205740000D03*
X68199000Y205740000D03*
D16*
X66188200Y218020900D03*
X66188200Y220306900D03*
D17*
X79574000Y223901000D03*
X77288000Y223901000D03*
D26*
X114966500Y265263000D03*
X111715300Y265263000D03*
D15*
X52944500Y247810600D03*
X52944500Y244559400D03*
D16*
X55332100Y244483200D03*
X55332100Y246769200D03*
X65238100Y246007200D03*
X65238100Y243721200D03*
X83356200Y263338700D03*
X83356200Y261052700D03*
X92246200Y261052700D03*
X92246200Y263338700D03*
G36*
G01*
X94407300Y263886200D02*
X96257300Y263886200D01*
G75*
G02*
X96507300Y263636200I0J-250000D01*
G01*
X96507300Y262061200D01*
G75*
G02*
X96257300Y261811200I-250000J0D01*
G01*
X94407300Y261811200D01*
G75*
G02*
X94157300Y262061200I0J250000D01*
G01*
X94157300Y263636200D01*
G75*
G02*
X94407300Y263886200I250000J0D01*
G01*
G37*
G36*
G01*
X94407300Y258961200D02*
X96257300Y258961200D01*
G75*
G02*
X96507300Y258711200I0J-250000D01*
G01*
X96507300Y257136200D01*
G75*
G02*
X96257300Y256886200I-250000J0D01*
G01*
X94407300Y256886200D01*
G75*
G02*
X94157300Y257136200I0J250000D01*
G01*
X94157300Y258711200D01*
G75*
G02*
X94407300Y258961200I250000J0D01*
G01*
G37*
G36*
G01*
X98166500Y263862100D02*
X100016500Y263862100D01*
G75*
G02*
X100266500Y263612100I0J-250000D01*
G01*
X100266500Y262037100D01*
G75*
G02*
X100016500Y261787100I-250000J0D01*
G01*
X98166500Y261787100D01*
G75*
G02*
X97916500Y262037100I0J250000D01*
G01*
X97916500Y263612100D01*
G75*
G02*
X98166500Y263862100I250000J0D01*
G01*
G37*
G36*
G01*
X98166500Y258937100D02*
X100016500Y258937100D01*
G75*
G02*
X100266500Y258687100I0J-250000D01*
G01*
X100266500Y257112100D01*
G75*
G02*
X100016500Y256862100I-250000J0D01*
G01*
X98166500Y256862100D01*
G75*
G02*
X97916500Y257112100I0J250000D01*
G01*
X97916500Y258687100D01*
G75*
G02*
X98166500Y258937100I250000J0D01*
G01*
G37*
D15*
X102342700Y262164200D03*
X102342700Y258913000D03*
D16*
X77736700Y279895300D03*
X77736700Y282181300D03*
D15*
X75323700Y280022300D03*
X75323700Y283273500D03*
D16*
X102281600Y226023300D03*
X102281600Y228309300D03*
D15*
X99894000Y229401500D03*
X99894000Y226150300D03*
D16*
X84010500Y292468300D03*
X84010500Y290182300D03*
D17*
X110752500Y234608500D03*
X108466500Y234608500D03*
X62611000Y261874000D03*
X60325000Y261874000D03*
D26*
X60350400Y259461000D03*
X63601600Y259461000D03*
D15*
X99894000Y231395400D03*
X99894000Y234646600D03*
D16*
X109165000Y228195000D03*
X109165000Y225909000D03*
D17*
X38521500Y270438500D03*
X36235500Y270438500D03*
D16*
X44236500Y272486000D03*
X44236500Y274772000D03*
X58778000Y274772000D03*
X58778000Y272486000D03*
X49062500Y272486000D03*
X49062500Y274772000D03*
X63667500Y272549500D03*
X63667500Y274835500D03*
X53952000Y274772000D03*
X53952000Y272486000D03*
X51765200Y207035400D03*
X51765200Y209321400D03*
D17*
X45593000Y202692000D03*
X43307000Y202692000D03*
X47561500Y200533000D03*
X49847500Y200533000D03*
X1752600Y208550900D03*
X-533400Y208550900D03*
D26*
X2743200Y206137900D03*
X-508000Y206137900D03*
D17*
X18770600Y221195900D03*
X16484600Y221195900D03*
D26*
X14960600Y229616000D03*
X11709400Y229616000D03*
D17*
X16764000Y224980500D03*
X19050000Y224980500D03*
D16*
X10096500Y219075000D03*
X10096500Y216789000D03*
X10096500Y215011000D03*
X10096500Y212725000D03*
X22098000Y220853000D03*
X22098000Y218567000D03*
D17*
X14706600Y221195900D03*
X12420600Y221195900D03*
X14287500Y211391500D03*
X16573500Y211391500D03*
D16*
X37528500Y218503500D03*
X37528500Y220789500D03*
D17*
X-6350000Y215193000D03*
X-8636000Y215193000D03*
X-8636000Y217212300D03*
X-6350000Y217212300D03*
D27*
X30048000Y214500000D03*
X27000000Y214500000D03*
D17*
X32651700Y227977700D03*
X34937700Y227977700D03*
D26*
X32702500Y225539300D03*
X35953700Y225539300D03*
D28*
X5588000Y284650000D03*
X5588000Y281350000D03*
D29*
X22500000Y282500000D03*
X22500000Y275500000D03*
D30*
X-3879600Y243255800D03*
X120400Y243255800D03*
D28*
X99187000Y209104500D03*
X99187000Y205804500D03*
X96837500Y205804500D03*
X96837500Y209104500D03*
X36322000Y285049100D03*
X36322000Y281749100D03*
D31*
X15302500Y232029000D03*
X12002500Y232029000D03*
D32*
X15148500Y227139500D03*
X11648500Y227139500D03*
X11585000Y236347000D03*
X15085000Y236347000D03*
D33*
X13586000Y295910000D03*
X-9014000Y295910000D03*
D17*
X119976900Y283972000D03*
X117690900Y283972000D03*
X127444500Y258076700D03*
X129730500Y258076700D03*
X127317500Y242824000D03*
X129603500Y242824000D03*
X127317500Y227901500D03*
X129603500Y227901500D03*
X127317500Y212534500D03*
X129603500Y212534500D03*
X88734900Y282867100D03*
X91020900Y282867100D03*
X108603800Y246035200D03*
X110889800Y246035200D03*
D16*
X108387500Y209161000D03*
X108387500Y206875000D03*
X119761000Y207010000D03*
X119761000Y209296000D03*
D17*
X103244000Y217416000D03*
X100958000Y217416000D03*
X110191300Y256906400D03*
X107905300Y256906400D03*
X103244000Y219448000D03*
X100958000Y219448000D03*
X68525000Y225933000D03*
X70811000Y225933000D03*
D16*
X72898000Y282257500D03*
X72898000Y279971500D03*
D17*
X100122600Y223991300D03*
X102408600Y223991300D03*
X60325000Y257057400D03*
X62611000Y257057400D03*
X12192000Y224980500D03*
X14478000Y224980500D03*
X-13716000Y205740000D03*
X-11430000Y205740000D03*
D34*
X-15748000Y291846000D03*
D35*
X-15748000Y286766000D03*
X49149000Y295045000D03*
D34*
X54229000Y295045000D03*
D14*
X-12890500Y211891000D03*
D10*
X-12890500Y214391000D03*
X-14890500Y214391000D03*
X-14890500Y211891000D03*
D36*
X-17600500Y207121000D03*
X-17600500Y219161000D03*
D13*
X66179700Y200304400D03*
X63639700Y200304400D03*
X61099700Y200304400D03*
X58559700Y200304400D03*
D14*
X56019700Y200304400D03*
D13*
X90678000Y216725500D03*
X90678000Y214185500D03*
X90678000Y211645500D03*
X90678000Y209105500D03*
X90678000Y206565500D03*
D14*
X90678000Y204025500D03*
X57404000Y203454000D03*
D13*
X57404000Y205994000D03*
X57404000Y208534000D03*
X57404000Y211074000D03*
X57404000Y213614000D03*
X90805000Y221869000D03*
D14*
X93345000Y221869000D03*
D37*
X23114000Y298362000D03*
X23114000Y287313000D03*
D38*
X1066800Y246861400D03*
X1066800Y253061400D03*
D37*
X11480800Y269429600D03*
X11480800Y258380600D03*
D39*
X-3302000Y201676000D03*
D40*
X-762000Y201676000D03*
D14*
X43434000Y234696000D03*
D13*
X43434000Y232156000D03*
X43434000Y229616000D03*
X43434000Y227076000D03*
D40*
X41275000Y222758000D03*
D39*
X43815000Y222758000D03*
D40*
X41275000Y218313000D03*
D39*
X43815000Y218313000D03*
X43815000Y213868000D03*
D40*
X41275000Y213868000D03*
X4318000Y201676000D03*
D39*
X1778000Y201676000D03*
X6858000Y201676000D03*
D40*
X9398000Y201676000D03*
G36*
G01*
X9758000Y283187000D02*
X9758000Y283487000D01*
G75*
G02*
X9908000Y283637000I150000J0D01*
G01*
X11558000Y283637000D01*
G75*
G02*
X11708000Y283487000I0J-150000D01*
G01*
X11708000Y283187000D01*
G75*
G02*
X11558000Y283037000I-150000J0D01*
G01*
X9908000Y283037000D01*
G75*
G02*
X9758000Y283187000I0J150000D01*
G01*
G37*
G36*
G01*
X9758000Y281917000D02*
X9758000Y282217000D01*
G75*
G02*
X9908000Y282367000I150000J0D01*
G01*
X11558000Y282367000D01*
G75*
G02*
X11708000Y282217000I0J-150000D01*
G01*
X11708000Y281917000D01*
G75*
G02*
X11558000Y281767000I-150000J0D01*
G01*
X9908000Y281767000D01*
G75*
G02*
X9758000Y281917000I0J150000D01*
G01*
G37*
G36*
G01*
X9758000Y280647000D02*
X9758000Y280947000D01*
G75*
G02*
X9908000Y281097000I150000J0D01*
G01*
X11558000Y281097000D01*
G75*
G02*
X11708000Y280947000I0J-150000D01*
G01*
X11708000Y280647000D01*
G75*
G02*
X11558000Y280497000I-150000J0D01*
G01*
X9908000Y280497000D01*
G75*
G02*
X9758000Y280647000I0J150000D01*
G01*
G37*
G36*
G01*
X9758000Y279377000D02*
X9758000Y279677000D01*
G75*
G02*
X9908000Y279827000I150000J0D01*
G01*
X11558000Y279827000D01*
G75*
G02*
X11708000Y279677000I0J-150000D01*
G01*
X11708000Y279377000D01*
G75*
G02*
X11558000Y279227000I-150000J0D01*
G01*
X9908000Y279227000D01*
G75*
G02*
X9758000Y279377000I0J150000D01*
G01*
G37*
G36*
G01*
X14708000Y279377000D02*
X14708000Y279677000D01*
G75*
G02*
X14858000Y279827000I150000J0D01*
G01*
X16508000Y279827000D01*
G75*
G02*
X16658000Y279677000I0J-150000D01*
G01*
X16658000Y279377000D01*
G75*
G02*
X16508000Y279227000I-150000J0D01*
G01*
X14858000Y279227000D01*
G75*
G02*
X14708000Y279377000I0J150000D01*
G01*
G37*
G36*
G01*
X14708000Y280647000D02*
X14708000Y280947000D01*
G75*
G02*
X14858000Y281097000I150000J0D01*
G01*
X16508000Y281097000D01*
G75*
G02*
X16658000Y280947000I0J-150000D01*
G01*
X16658000Y280647000D01*
G75*
G02*
X16508000Y280497000I-150000J0D01*
G01*
X14858000Y280497000D01*
G75*
G02*
X14708000Y280647000I0J150000D01*
G01*
G37*
G36*
G01*
X14708000Y281917000D02*
X14708000Y282217000D01*
G75*
G02*
X14858000Y282367000I150000J0D01*
G01*
X16508000Y282367000D01*
G75*
G02*
X16658000Y282217000I0J-150000D01*
G01*
X16658000Y281917000D01*
G75*
G02*
X16508000Y281767000I-150000J0D01*
G01*
X14858000Y281767000D01*
G75*
G02*
X14708000Y281917000I0J150000D01*
G01*
G37*
G36*
G01*
X14708000Y283187000D02*
X14708000Y283487000D01*
G75*
G02*
X14858000Y283637000I150000J0D01*
G01*
X16508000Y283637000D01*
G75*
G02*
X16658000Y283487000I0J-150000D01*
G01*
X16658000Y283187000D01*
G75*
G02*
X16508000Y283037000I-150000J0D01*
G01*
X14858000Y283037000D01*
G75*
G02*
X14708000Y283187000I0J150000D01*
G01*
G37*
G36*
G01*
X135615500Y286177500D02*
X134640500Y286177500D01*
G75*
G02*
X134378000Y286440000I0J262500D01*
G01*
X134378000Y286965000D01*
G75*
G02*
X134640500Y287227500I262500J0D01*
G01*
X135615500Y287227500D01*
G75*
G02*
X135878000Y286965000I0J-262500D01*
G01*
X135878000Y286440000D01*
G75*
G02*
X135615500Y286177500I-262500J0D01*
G01*
G37*
G36*
G01*
X135615500Y287447500D02*
X134640500Y287447500D01*
G75*
G02*
X134378000Y287710000I0J262500D01*
G01*
X134378000Y288235000D01*
G75*
G02*
X134640500Y288497500I262500J0D01*
G01*
X135615500Y288497500D01*
G75*
G02*
X135878000Y288235000I0J-262500D01*
G01*
X135878000Y287710000D01*
G75*
G02*
X135615500Y287447500I-262500J0D01*
G01*
G37*
D41*
X135128000Y285432500D03*
G36*
G01*
X105757800Y284145500D02*
X104782800Y284145500D01*
G75*
G02*
X104520300Y284408000I0J262500D01*
G01*
X104520300Y284933000D01*
G75*
G02*
X104782800Y285195500I262500J0D01*
G01*
X105757800Y285195500D01*
G75*
G02*
X106020300Y284933000I0J-262500D01*
G01*
X106020300Y284408000D01*
G75*
G02*
X105757800Y284145500I-262500J0D01*
G01*
G37*
G36*
G01*
X105757800Y285415500D02*
X104782800Y285415500D01*
G75*
G02*
X104520300Y285678000I0J262500D01*
G01*
X104520300Y286203000D01*
G75*
G02*
X104782800Y286465500I262500J0D01*
G01*
X105757800Y286465500D01*
G75*
G02*
X106020300Y286203000I0J-262500D01*
G01*
X106020300Y285678000D01*
G75*
G02*
X105757800Y285415500I-262500J0D01*
G01*
G37*
X105270300Y283400500D03*
D21*
X40843200Y282065600D03*
D20*
X40843200Y284605600D03*
X40843200Y287145600D03*
D23*
X36301500Y272677000D03*
X38201500Y272677000D03*
X37251500Y274677000D03*
D42*
X38138100Y295667300D03*
D43*
X40678100Y295667300D03*
X43218100Y295667300D03*
X66713100Y295667300D03*
X64173100Y295667300D03*
D42*
X61633100Y295667300D03*
D21*
X48641000Y282218000D03*
D20*
X48641000Y284758000D03*
X48641000Y287298000D03*
X56515000Y287298000D03*
X56515000Y284758000D03*
D21*
X56515000Y282218000D03*
D22*
X53730400Y232857000D03*
X53730400Y234757000D03*
X51730400Y233807000D03*
D23*
X44513500Y206486000D03*
X45463500Y204486000D03*
X43563500Y204486000D03*
X47310000Y202327000D03*
X49210000Y202327000D03*
X48260000Y204327000D03*
D22*
X51730400Y230187500D03*
X53730400Y231137500D03*
X53730400Y229237500D03*
X53730400Y225618000D03*
X53730400Y227518000D03*
X51730400Y226568000D03*
X51844700Y222427800D03*
X53844700Y223377800D03*
X53844700Y221477800D03*
X53844700Y218201200D03*
X53844700Y220101200D03*
X51844700Y219151200D03*
X53844700Y214835700D03*
X53844700Y216735700D03*
X51844700Y215785700D03*
D17*
X123355100Y258076700D03*
X125641100Y258076700D03*
X125349000Y227901500D03*
X123063000Y227901500D03*
X123253500Y212534500D03*
X125539500Y212534500D03*
X81851500Y288150300D03*
X84137500Y288150300D03*
D44*
X13656000Y289344000D03*
X6156000Y287744000D03*
G36*
G01*
X125364100Y290647800D02*
X125664100Y290647800D01*
G75*
G02*
X125814100Y290497800I0J-150000D01*
G01*
X125814100Y289047800D01*
G75*
G02*
X125664100Y288897800I-150000J0D01*
G01*
X125364100Y288897800D01*
G75*
G02*
X125214100Y289047800I0J150000D01*
G01*
X125214100Y290497800D01*
G75*
G02*
X125364100Y290647800I150000J0D01*
G01*
G37*
G36*
G01*
X124094100Y290647800D02*
X124394100Y290647800D01*
G75*
G02*
X124544100Y290497800I0J-150000D01*
G01*
X124544100Y289047800D01*
G75*
G02*
X124394100Y288897800I-150000J0D01*
G01*
X124094100Y288897800D01*
G75*
G02*
X123944100Y289047800I0J150000D01*
G01*
X123944100Y290497800D01*
G75*
G02*
X124094100Y290647800I150000J0D01*
G01*
G37*
G36*
G01*
X122824100Y290647800D02*
X123124100Y290647800D01*
G75*
G02*
X123274100Y290497800I0J-150000D01*
G01*
X123274100Y289047800D01*
G75*
G02*
X123124100Y288897800I-150000J0D01*
G01*
X122824100Y288897800D01*
G75*
G02*
X122674100Y289047800I0J150000D01*
G01*
X122674100Y290497800D01*
G75*
G02*
X122824100Y290647800I150000J0D01*
G01*
G37*
G36*
G01*
X121554100Y290647800D02*
X121854100Y290647800D01*
G75*
G02*
X122004100Y290497800I0J-150000D01*
G01*
X122004100Y289047800D01*
G75*
G02*
X121854100Y288897800I-150000J0D01*
G01*
X121554100Y288897800D01*
G75*
G02*
X121404100Y289047800I0J150000D01*
G01*
X121404100Y290497800D01*
G75*
G02*
X121554100Y290647800I150000J0D01*
G01*
G37*
G36*
G01*
X121554100Y285497800D02*
X121854100Y285497800D01*
G75*
G02*
X122004100Y285347800I0J-150000D01*
G01*
X122004100Y283897800D01*
G75*
G02*
X121854100Y283747800I-150000J0D01*
G01*
X121554100Y283747800D01*
G75*
G02*
X121404100Y283897800I0J150000D01*
G01*
X121404100Y285347800D01*
G75*
G02*
X121554100Y285497800I150000J0D01*
G01*
G37*
G36*
G01*
X122824100Y285497800D02*
X123124100Y285497800D01*
G75*
G02*
X123274100Y285347800I0J-150000D01*
G01*
X123274100Y283897800D01*
G75*
G02*
X123124100Y283747800I-150000J0D01*
G01*
X122824100Y283747800D01*
G75*
G02*
X122674100Y283897800I0J150000D01*
G01*
X122674100Y285347800D01*
G75*
G02*
X122824100Y285497800I150000J0D01*
G01*
G37*
G36*
G01*
X124094100Y285497800D02*
X124394100Y285497800D01*
G75*
G02*
X124544100Y285347800I0J-150000D01*
G01*
X124544100Y283897800D01*
G75*
G02*
X124394100Y283747800I-150000J0D01*
G01*
X124094100Y283747800D01*
G75*
G02*
X123944100Y283897800I0J150000D01*
G01*
X123944100Y285347800D01*
G75*
G02*
X124094100Y285497800I150000J0D01*
G01*
G37*
G36*
G01*
X125364100Y285497800D02*
X125664100Y285497800D01*
G75*
G02*
X125814100Y285347800I0J-150000D01*
G01*
X125814100Y283897800D01*
G75*
G02*
X125664100Y283747800I-150000J0D01*
G01*
X125364100Y283747800D01*
G75*
G02*
X125214100Y283897800I0J150000D01*
G01*
X125214100Y285347800D01*
G75*
G02*
X125364100Y285497800I150000J0D01*
G01*
G37*
D45*
X133565900Y260123900D03*
X133565900Y261073900D03*
X133565900Y262023900D03*
X131365900Y262023900D03*
X131365900Y260123900D03*
X131365900Y261073900D03*
X131297500Y245808500D03*
X131297500Y244858500D03*
X131297500Y246758500D03*
X133497500Y246758500D03*
X133497500Y245808500D03*
X133497500Y244858500D03*
X133502400Y229961400D03*
X133502400Y230911400D03*
X133502400Y231861400D03*
X131302400Y231861400D03*
X131302400Y229961400D03*
X131302400Y230911400D03*
X133053000Y214505500D03*
X133053000Y215455500D03*
X133053000Y216405500D03*
X130853000Y216405500D03*
X130853000Y214505500D03*
X130853000Y215455500D03*
D46*
X79681000Y232251000D03*
X77181000Y228251000D03*
X79681000Y228251000D03*
X77181000Y232251000D03*
D47*
X34420500Y247468600D03*
X34420500Y245768600D03*
X34420500Y244068600D03*
X34420500Y242368600D03*
X34420500Y240668600D03*
D48*
X43570500Y244068600D03*
G36*
G01*
X-11117000Y245093700D02*
X-11117000Y244818700D01*
G75*
G02*
X-11254500Y244681200I-137500J0D01*
G01*
X-12579500Y244681200D01*
G75*
G02*
X-12717000Y244818700I0J137500D01*
G01*
X-12717000Y245093700D01*
G75*
G02*
X-12579500Y245231200I137500J0D01*
G01*
X-11254500Y245231200D01*
G75*
G02*
X-11117000Y245093700I0J-137500D01*
G01*
G37*
G36*
G01*
X-11117000Y246363700D02*
X-11117000Y246088700D01*
G75*
G02*
X-11254500Y245951200I-137500J0D01*
G01*
X-12579500Y245951200D01*
G75*
G02*
X-12717000Y246088700I0J137500D01*
G01*
X-12717000Y246363700D01*
G75*
G02*
X-12579500Y246501200I137500J0D01*
G01*
X-11254500Y246501200D01*
G75*
G02*
X-11117000Y246363700I0J-137500D01*
G01*
G37*
G36*
G01*
X-11117000Y247633700D02*
X-11117000Y247358700D01*
G75*
G02*
X-11254500Y247221200I-137500J0D01*
G01*
X-12579500Y247221200D01*
G75*
G02*
X-12717000Y247358700I0J137500D01*
G01*
X-12717000Y247633700D01*
G75*
G02*
X-12579500Y247771200I137500J0D01*
G01*
X-11254500Y247771200D01*
G75*
G02*
X-11117000Y247633700I0J-137500D01*
G01*
G37*
G36*
G01*
X-11117000Y248903700D02*
X-11117000Y248628700D01*
G75*
G02*
X-11254500Y248491200I-137500J0D01*
G01*
X-12579500Y248491200D01*
G75*
G02*
X-12717000Y248628700I0J137500D01*
G01*
X-12717000Y248903700D01*
G75*
G02*
X-12579500Y249041200I137500J0D01*
G01*
X-11254500Y249041200D01*
G75*
G02*
X-11117000Y248903700I0J-137500D01*
G01*
G37*
G36*
G01*
X-11117000Y250173700D02*
X-11117000Y249898700D01*
G75*
G02*
X-11254500Y249761200I-137500J0D01*
G01*
X-12579500Y249761200D01*
G75*
G02*
X-12717000Y249898700I0J137500D01*
G01*
X-12717000Y250173700D01*
G75*
G02*
X-12579500Y250311200I137500J0D01*
G01*
X-11254500Y250311200D01*
G75*
G02*
X-11117000Y250173700I0J-137500D01*
G01*
G37*
G36*
G01*
X-11117000Y251443700D02*
X-11117000Y251168700D01*
G75*
G02*
X-11254500Y251031200I-137500J0D01*
G01*
X-12579500Y251031200D01*
G75*
G02*
X-12717000Y251168700I0J137500D01*
G01*
X-12717000Y251443700D01*
G75*
G02*
X-12579500Y251581200I137500J0D01*
G01*
X-11254500Y251581200D01*
G75*
G02*
X-11117000Y251443700I0J-137500D01*
G01*
G37*
G36*
G01*
X-11117000Y252713700D02*
X-11117000Y252438700D01*
G75*
G02*
X-11254500Y252301200I-137500J0D01*
G01*
X-12579500Y252301200D01*
G75*
G02*
X-12717000Y252438700I0J137500D01*
G01*
X-12717000Y252713700D01*
G75*
G02*
X-12579500Y252851200I137500J0D01*
G01*
X-11254500Y252851200D01*
G75*
G02*
X-11117000Y252713700I0J-137500D01*
G01*
G37*
G36*
G01*
X-11117000Y253983700D02*
X-11117000Y253708700D01*
G75*
G02*
X-11254500Y253571200I-137500J0D01*
G01*
X-12579500Y253571200D01*
G75*
G02*
X-12717000Y253708700I0J137500D01*
G01*
X-12717000Y253983700D01*
G75*
G02*
X-12579500Y254121200I137500J0D01*
G01*
X-11254500Y254121200D01*
G75*
G02*
X-11117000Y253983700I0J-137500D01*
G01*
G37*
G36*
G01*
X-5817000Y253983700D02*
X-5817000Y253708700D01*
G75*
G02*
X-5954500Y253571200I-137500J0D01*
G01*
X-7279500Y253571200D01*
G75*
G02*
X-7417000Y253708700I0J137500D01*
G01*
X-7417000Y253983700D01*
G75*
G02*
X-7279500Y254121200I137500J0D01*
G01*
X-5954500Y254121200D01*
G75*
G02*
X-5817000Y253983700I0J-137500D01*
G01*
G37*
G36*
G01*
X-5817000Y252713700D02*
X-5817000Y252438700D01*
G75*
G02*
X-5954500Y252301200I-137500J0D01*
G01*
X-7279500Y252301200D01*
G75*
G02*
X-7417000Y252438700I0J137500D01*
G01*
X-7417000Y252713700D01*
G75*
G02*
X-7279500Y252851200I137500J0D01*
G01*
X-5954500Y252851200D01*
G75*
G02*
X-5817000Y252713700I0J-137500D01*
G01*
G37*
G36*
G01*
X-5817000Y251443700D02*
X-5817000Y251168700D01*
G75*
G02*
X-5954500Y251031200I-137500J0D01*
G01*
X-7279500Y251031200D01*
G75*
G02*
X-7417000Y251168700I0J137500D01*
G01*
X-7417000Y251443700D01*
G75*
G02*
X-7279500Y251581200I137500J0D01*
G01*
X-5954500Y251581200D01*
G75*
G02*
X-5817000Y251443700I0J-137500D01*
G01*
G37*
G36*
G01*
X-5817000Y250173700D02*
X-5817000Y249898700D01*
G75*
G02*
X-5954500Y249761200I-137500J0D01*
G01*
X-7279500Y249761200D01*
G75*
G02*
X-7417000Y249898700I0J137500D01*
G01*
X-7417000Y250173700D01*
G75*
G02*
X-7279500Y250311200I137500J0D01*
G01*
X-5954500Y250311200D01*
G75*
G02*
X-5817000Y250173700I0J-137500D01*
G01*
G37*
G36*
G01*
X-5817000Y248903700D02*
X-5817000Y248628700D01*
G75*
G02*
X-5954500Y248491200I-137500J0D01*
G01*
X-7279500Y248491200D01*
G75*
G02*
X-7417000Y248628700I0J137500D01*
G01*
X-7417000Y248903700D01*
G75*
G02*
X-7279500Y249041200I137500J0D01*
G01*
X-5954500Y249041200D01*
G75*
G02*
X-5817000Y248903700I0J-137500D01*
G01*
G37*
G36*
G01*
X-5817000Y247633700D02*
X-5817000Y247358700D01*
G75*
G02*
X-5954500Y247221200I-137500J0D01*
G01*
X-7279500Y247221200D01*
G75*
G02*
X-7417000Y247358700I0J137500D01*
G01*
X-7417000Y247633700D01*
G75*
G02*
X-7279500Y247771200I137500J0D01*
G01*
X-5954500Y247771200D01*
G75*
G02*
X-5817000Y247633700I0J-137500D01*
G01*
G37*
G36*
G01*
X-5817000Y246363700D02*
X-5817000Y246088700D01*
G75*
G02*
X-5954500Y245951200I-137500J0D01*
G01*
X-7279500Y245951200D01*
G75*
G02*
X-7417000Y246088700I0J137500D01*
G01*
X-7417000Y246363700D01*
G75*
G02*
X-7279500Y246501200I137500J0D01*
G01*
X-5954500Y246501200D01*
G75*
G02*
X-5817000Y246363700I0J-137500D01*
G01*
G37*
G36*
G01*
X-5817000Y245093700D02*
X-5817000Y244818700D01*
G75*
G02*
X-5954500Y244681200I-137500J0D01*
G01*
X-7279500Y244681200D01*
G75*
G02*
X-7417000Y244818700I0J137500D01*
G01*
X-7417000Y245093700D01*
G75*
G02*
X-7279500Y245231200I137500J0D01*
G01*
X-5954500Y245231200D01*
G75*
G02*
X-5817000Y245093700I0J-137500D01*
G01*
G37*
G36*
G01*
X96839900Y289301600D02*
X97139900Y289301600D01*
G75*
G02*
X97289900Y289151600I0J-150000D01*
G01*
X97289900Y287701600D01*
G75*
G02*
X97139900Y287551600I-150000J0D01*
G01*
X96839900Y287551600D01*
G75*
G02*
X96689900Y287701600I0J150000D01*
G01*
X96689900Y289151600D01*
G75*
G02*
X96839900Y289301600I150000J0D01*
G01*
G37*
G36*
G01*
X95569900Y289301600D02*
X95869900Y289301600D01*
G75*
G02*
X96019900Y289151600I0J-150000D01*
G01*
X96019900Y287701600D01*
G75*
G02*
X95869900Y287551600I-150000J0D01*
G01*
X95569900Y287551600D01*
G75*
G02*
X95419900Y287701600I0J150000D01*
G01*
X95419900Y289151600D01*
G75*
G02*
X95569900Y289301600I150000J0D01*
G01*
G37*
G36*
G01*
X94299900Y289301600D02*
X94599900Y289301600D01*
G75*
G02*
X94749900Y289151600I0J-150000D01*
G01*
X94749900Y287701600D01*
G75*
G02*
X94599900Y287551600I-150000J0D01*
G01*
X94299900Y287551600D01*
G75*
G02*
X94149900Y287701600I0J150000D01*
G01*
X94149900Y289151600D01*
G75*
G02*
X94299900Y289301600I150000J0D01*
G01*
G37*
G36*
G01*
X93029900Y289301600D02*
X93329900Y289301600D01*
G75*
G02*
X93479900Y289151600I0J-150000D01*
G01*
X93479900Y287701600D01*
G75*
G02*
X93329900Y287551600I-150000J0D01*
G01*
X93029900Y287551600D01*
G75*
G02*
X92879900Y287701600I0J150000D01*
G01*
X92879900Y289151600D01*
G75*
G02*
X93029900Y289301600I150000J0D01*
G01*
G37*
G36*
G01*
X93029900Y284151600D02*
X93329900Y284151600D01*
G75*
G02*
X93479900Y284001600I0J-150000D01*
G01*
X93479900Y282551600D01*
G75*
G02*
X93329900Y282401600I-150000J0D01*
G01*
X93029900Y282401600D01*
G75*
G02*
X92879900Y282551600I0J150000D01*
G01*
X92879900Y284001600D01*
G75*
G02*
X93029900Y284151600I150000J0D01*
G01*
G37*
G36*
G01*
X94299900Y284151600D02*
X94599900Y284151600D01*
G75*
G02*
X94749900Y284001600I0J-150000D01*
G01*
X94749900Y282551600D01*
G75*
G02*
X94599900Y282401600I-150000J0D01*
G01*
X94299900Y282401600D01*
G75*
G02*
X94149900Y282551600I0J150000D01*
G01*
X94149900Y284001600D01*
G75*
G02*
X94299900Y284151600I150000J0D01*
G01*
G37*
G36*
G01*
X95569900Y284151600D02*
X95869900Y284151600D01*
G75*
G02*
X96019900Y284001600I0J-150000D01*
G01*
X96019900Y282551600D01*
G75*
G02*
X95869900Y282401600I-150000J0D01*
G01*
X95569900Y282401600D01*
G75*
G02*
X95419900Y282551600I0J150000D01*
G01*
X95419900Y284001600D01*
G75*
G02*
X95569900Y284151600I150000J0D01*
G01*
G37*
G36*
G01*
X96839900Y284151600D02*
X97139900Y284151600D01*
G75*
G02*
X97289900Y284001600I0J-150000D01*
G01*
X97289900Y282551600D01*
G75*
G02*
X97139900Y282401600I-150000J0D01*
G01*
X96839900Y282401600D01*
G75*
G02*
X96689900Y282551600I0J150000D01*
G01*
X96689900Y284001600D01*
G75*
G02*
X96839900Y284151600I150000J0D01*
G01*
G37*
G36*
G01*
X116454800Y246392600D02*
X116754800Y246392600D01*
G75*
G02*
X116904800Y246242600I0J-150000D01*
G01*
X116904800Y244792600D01*
G75*
G02*
X116754800Y244642600I-150000J0D01*
G01*
X116454800Y244642600D01*
G75*
G02*
X116304800Y244792600I0J150000D01*
G01*
X116304800Y246242600D01*
G75*
G02*
X116454800Y246392600I150000J0D01*
G01*
G37*
G36*
G01*
X115184800Y246392600D02*
X115484800Y246392600D01*
G75*
G02*
X115634800Y246242600I0J-150000D01*
G01*
X115634800Y244792600D01*
G75*
G02*
X115484800Y244642600I-150000J0D01*
G01*
X115184800Y244642600D01*
G75*
G02*
X115034800Y244792600I0J150000D01*
G01*
X115034800Y246242600D01*
G75*
G02*
X115184800Y246392600I150000J0D01*
G01*
G37*
G36*
G01*
X113914800Y246392600D02*
X114214800Y246392600D01*
G75*
G02*
X114364800Y246242600I0J-150000D01*
G01*
X114364800Y244792600D01*
G75*
G02*
X114214800Y244642600I-150000J0D01*
G01*
X113914800Y244642600D01*
G75*
G02*
X113764800Y244792600I0J150000D01*
G01*
X113764800Y246242600D01*
G75*
G02*
X113914800Y246392600I150000J0D01*
G01*
G37*
G36*
G01*
X112644800Y246392600D02*
X112944800Y246392600D01*
G75*
G02*
X113094800Y246242600I0J-150000D01*
G01*
X113094800Y244792600D01*
G75*
G02*
X112944800Y244642600I-150000J0D01*
G01*
X112644800Y244642600D01*
G75*
G02*
X112494800Y244792600I0J150000D01*
G01*
X112494800Y246242600D01*
G75*
G02*
X112644800Y246392600I150000J0D01*
G01*
G37*
G36*
G01*
X112644800Y251542600D02*
X112944800Y251542600D01*
G75*
G02*
X113094800Y251392600I0J-150000D01*
G01*
X113094800Y249942600D01*
G75*
G02*
X112944800Y249792600I-150000J0D01*
G01*
X112644800Y249792600D01*
G75*
G02*
X112494800Y249942600I0J150000D01*
G01*
X112494800Y251392600D01*
G75*
G02*
X112644800Y251542600I150000J0D01*
G01*
G37*
G36*
G01*
X113914800Y251542600D02*
X114214800Y251542600D01*
G75*
G02*
X114364800Y251392600I0J-150000D01*
G01*
X114364800Y249942600D01*
G75*
G02*
X114214800Y249792600I-150000J0D01*
G01*
X113914800Y249792600D01*
G75*
G02*
X113764800Y249942600I0J150000D01*
G01*
X113764800Y251392600D01*
G75*
G02*
X113914800Y251542600I150000J0D01*
G01*
G37*
G36*
G01*
X115184800Y251542600D02*
X115484800Y251542600D01*
G75*
G02*
X115634800Y251392600I0J-150000D01*
G01*
X115634800Y249942600D01*
G75*
G02*
X115484800Y249792600I-150000J0D01*
G01*
X115184800Y249792600D01*
G75*
G02*
X115034800Y249942600I0J150000D01*
G01*
X115034800Y251392600D01*
G75*
G02*
X115184800Y251542600I150000J0D01*
G01*
G37*
G36*
G01*
X116454800Y251542600D02*
X116754800Y251542600D01*
G75*
G02*
X116904800Y251392600I0J-150000D01*
G01*
X116904800Y249942600D01*
G75*
G02*
X116754800Y249792600I-150000J0D01*
G01*
X116454800Y249792600D01*
G75*
G02*
X116304800Y249942600I0J150000D01*
G01*
X116304800Y251392600D01*
G75*
G02*
X116454800Y251542600I150000J0D01*
G01*
G37*
D49*
X125068200Y206651300D03*
X126018200Y206651300D03*
X124118200Y206651300D03*
X124118200Y208851300D03*
X125068200Y208851300D03*
X126018200Y208851300D03*
D50*
X128059100Y200969500D03*
X128059100Y200469500D03*
X128059100Y199969500D03*
X128059100Y201469500D03*
X128059100Y201969500D03*
X123779100Y200969500D03*
X123779100Y201469500D03*
X123779100Y201969500D03*
X123779100Y200469500D03*
X123779100Y199969500D03*
D51*
X107920500Y211043500D03*
X107920500Y211693500D03*
X107920500Y212343500D03*
X107920500Y212993500D03*
X103520500Y212993500D03*
X103520500Y212343500D03*
X103520500Y211693500D03*
X103520500Y211043500D03*
X90001200Y263043700D03*
X90001200Y262393700D03*
X90001200Y261743700D03*
X90001200Y261093700D03*
X85601200Y261093700D03*
X85601200Y261743700D03*
X85601200Y262393700D03*
X85601200Y263043700D03*
G36*
G01*
X115743600Y263480600D02*
X116043600Y263480600D01*
G75*
G02*
X116193600Y263330600I0J-150000D01*
G01*
X116193600Y261880600D01*
G75*
G02*
X116043600Y261730600I-150000J0D01*
G01*
X115743600Y261730600D01*
G75*
G02*
X115593600Y261880600I0J150000D01*
G01*
X115593600Y263330600D01*
G75*
G02*
X115743600Y263480600I150000J0D01*
G01*
G37*
G36*
G01*
X114473600Y263480600D02*
X114773600Y263480600D01*
G75*
G02*
X114923600Y263330600I0J-150000D01*
G01*
X114923600Y261880600D01*
G75*
G02*
X114773600Y261730600I-150000J0D01*
G01*
X114473600Y261730600D01*
G75*
G02*
X114323600Y261880600I0J150000D01*
G01*
X114323600Y263330600D01*
G75*
G02*
X114473600Y263480600I150000J0D01*
G01*
G37*
G36*
G01*
X113203600Y263480600D02*
X113503600Y263480600D01*
G75*
G02*
X113653600Y263330600I0J-150000D01*
G01*
X113653600Y261880600D01*
G75*
G02*
X113503600Y261730600I-150000J0D01*
G01*
X113203600Y261730600D01*
G75*
G02*
X113053600Y261880600I0J150000D01*
G01*
X113053600Y263330600D01*
G75*
G02*
X113203600Y263480600I150000J0D01*
G01*
G37*
G36*
G01*
X111933600Y263480600D02*
X112233600Y263480600D01*
G75*
G02*
X112383600Y263330600I0J-150000D01*
G01*
X112383600Y261880600D01*
G75*
G02*
X112233600Y261730600I-150000J0D01*
G01*
X111933600Y261730600D01*
G75*
G02*
X111783600Y261880600I0J150000D01*
G01*
X111783600Y263330600D01*
G75*
G02*
X111933600Y263480600I150000J0D01*
G01*
G37*
G36*
G01*
X111933600Y258330600D02*
X112233600Y258330600D01*
G75*
G02*
X112383600Y258180600I0J-150000D01*
G01*
X112383600Y256730600D01*
G75*
G02*
X112233600Y256580600I-150000J0D01*
G01*
X111933600Y256580600D01*
G75*
G02*
X111783600Y256730600I0J150000D01*
G01*
X111783600Y258180600D01*
G75*
G02*
X111933600Y258330600I150000J0D01*
G01*
G37*
G36*
G01*
X113203600Y258330600D02*
X113503600Y258330600D01*
G75*
G02*
X113653600Y258180600I0J-150000D01*
G01*
X113653600Y256730600D01*
G75*
G02*
X113503600Y256580600I-150000J0D01*
G01*
X113203600Y256580600D01*
G75*
G02*
X113053600Y256730600I0J150000D01*
G01*
X113053600Y258180600D01*
G75*
G02*
X113203600Y258330600I150000J0D01*
G01*
G37*
G36*
G01*
X114473600Y258330600D02*
X114773600Y258330600D01*
G75*
G02*
X114923600Y258180600I0J-150000D01*
G01*
X114923600Y256730600D01*
G75*
G02*
X114773600Y256580600I-150000J0D01*
G01*
X114473600Y256580600D01*
G75*
G02*
X114323600Y256730600I0J150000D01*
G01*
X114323600Y258180600D01*
G75*
G02*
X114473600Y258330600I150000J0D01*
G01*
G37*
G36*
G01*
X115743600Y258330600D02*
X116043600Y258330600D01*
G75*
G02*
X116193600Y258180600I0J-150000D01*
G01*
X116193600Y256730600D01*
G75*
G02*
X116043600Y256580600I-150000J0D01*
G01*
X115743600Y256580600D01*
G75*
G02*
X115593600Y256730600I0J150000D01*
G01*
X115593600Y258180600D01*
G75*
G02*
X115743600Y258330600I150000J0D01*
G01*
G37*
G36*
G01*
X56708100Y247254200D02*
X56708100Y247554200D01*
G75*
G02*
X56858100Y247704200I150000J0D01*
G01*
X58508100Y247704200D01*
G75*
G02*
X58658100Y247554200I0J-150000D01*
G01*
X58658100Y247254200D01*
G75*
G02*
X58508100Y247104200I-150000J0D01*
G01*
X56858100Y247104200D01*
G75*
G02*
X56708100Y247254200I0J150000D01*
G01*
G37*
G36*
G01*
X56708100Y245984200D02*
X56708100Y246284200D01*
G75*
G02*
X56858100Y246434200I150000J0D01*
G01*
X58508100Y246434200D01*
G75*
G02*
X58658100Y246284200I0J-150000D01*
G01*
X58658100Y245984200D01*
G75*
G02*
X58508100Y245834200I-150000J0D01*
G01*
X56858100Y245834200D01*
G75*
G02*
X56708100Y245984200I0J150000D01*
G01*
G37*
G36*
G01*
X56708100Y244714200D02*
X56708100Y245014200D01*
G75*
G02*
X56858100Y245164200I150000J0D01*
G01*
X58508100Y245164200D01*
G75*
G02*
X58658100Y245014200I0J-150000D01*
G01*
X58658100Y244714200D01*
G75*
G02*
X58508100Y244564200I-150000J0D01*
G01*
X56858100Y244564200D01*
G75*
G02*
X56708100Y244714200I0J150000D01*
G01*
G37*
G36*
G01*
X56708100Y243444200D02*
X56708100Y243744200D01*
G75*
G02*
X56858100Y243894200I150000J0D01*
G01*
X58508100Y243894200D01*
G75*
G02*
X58658100Y243744200I0J-150000D01*
G01*
X58658100Y243444200D01*
G75*
G02*
X58508100Y243294200I-150000J0D01*
G01*
X56858100Y243294200D01*
G75*
G02*
X56708100Y243444200I0J150000D01*
G01*
G37*
G36*
G01*
X61658100Y243444200D02*
X61658100Y243744200D01*
G75*
G02*
X61808100Y243894200I150000J0D01*
G01*
X63458100Y243894200D01*
G75*
G02*
X63608100Y243744200I0J-150000D01*
G01*
X63608100Y243444200D01*
G75*
G02*
X63458100Y243294200I-150000J0D01*
G01*
X61808100Y243294200D01*
G75*
G02*
X61658100Y243444200I0J150000D01*
G01*
G37*
G36*
G01*
X61658100Y244714200D02*
X61658100Y245014200D01*
G75*
G02*
X61808100Y245164200I150000J0D01*
G01*
X63458100Y245164200D01*
G75*
G02*
X63608100Y245014200I0J-150000D01*
G01*
X63608100Y244714200D01*
G75*
G02*
X63458100Y244564200I-150000J0D01*
G01*
X61808100Y244564200D01*
G75*
G02*
X61658100Y244714200I0J150000D01*
G01*
G37*
G36*
G01*
X61658100Y245984200D02*
X61658100Y246284200D01*
G75*
G02*
X61808100Y246434200I150000J0D01*
G01*
X63458100Y246434200D01*
G75*
G02*
X63608100Y246284200I0J-150000D01*
G01*
X63608100Y245984200D01*
G75*
G02*
X63458100Y245834200I-150000J0D01*
G01*
X61808100Y245834200D01*
G75*
G02*
X61658100Y245984200I0J150000D01*
G01*
G37*
G36*
G01*
X61658100Y247254200D02*
X61658100Y247554200D01*
G75*
G02*
X61808100Y247704200I150000J0D01*
G01*
X63458100Y247704200D01*
G75*
G02*
X63608100Y247554200I0J-150000D01*
G01*
X63608100Y247254200D01*
G75*
G02*
X63458100Y247104200I-150000J0D01*
G01*
X61808100Y247104200D01*
G75*
G02*
X61658100Y247254200I0J150000D01*
G01*
G37*
X58479000Y269443400D03*
X58479000Y268793400D03*
X58479000Y268143400D03*
X58479000Y267493400D03*
X58479000Y266843400D03*
X58479000Y266193400D03*
X58479000Y265543400D03*
X58479000Y264893400D03*
X58479000Y264243400D03*
X58479000Y263593400D03*
X64379000Y263593400D03*
X64379000Y264243400D03*
X64379000Y264893400D03*
X64379000Y265543400D03*
X64379000Y266193400D03*
X64379000Y266843400D03*
X64379000Y267493400D03*
X64379000Y268143400D03*
X64379000Y268793400D03*
X64379000Y269443400D03*
D52*
X12717100Y218263900D03*
X12717100Y217613900D03*
X12717100Y216963900D03*
X12717100Y216313900D03*
X12717100Y215663900D03*
X12717100Y215013900D03*
X12717100Y214363900D03*
X12717100Y213713900D03*
X19617100Y213713900D03*
X19617100Y214363900D03*
X19617100Y215013900D03*
X19617100Y215663900D03*
X19617100Y216313900D03*
X19617100Y216963900D03*
X19617100Y217613900D03*
X19617100Y218263900D03*
D53*
X3086100Y216357900D03*
X2451100Y216357900D03*
X1816100Y216357900D03*
X1181100Y216357900D03*
X546100Y216357900D03*
X-88900Y216357900D03*
X-723900Y216357900D03*
X-1358900Y216357900D03*
X-1358900Y211157900D03*
X-723900Y211157900D03*
X-88900Y211157900D03*
X546100Y211157900D03*
X1181100Y211157900D03*
X1816100Y211157900D03*
X2451100Y211157900D03*
X3086100Y211157900D03*
G36*
G01*
X36006500Y217891500D02*
X36006500Y217591500D01*
G75*
G02*
X35856500Y217441500I-150000J0D01*
G01*
X34356500Y217441500D01*
G75*
G02*
X34206500Y217591500I0J150000D01*
G01*
X34206500Y217891500D01*
G75*
G02*
X34356500Y218041500I150000J0D01*
G01*
X35856500Y218041500D01*
G75*
G02*
X36006500Y217891500I0J-150000D01*
G01*
G37*
G36*
G01*
X36006500Y219161500D02*
X36006500Y218861500D01*
G75*
G02*
X35856500Y218711500I-150000J0D01*
G01*
X34356500Y218711500D01*
G75*
G02*
X34206500Y218861500I0J150000D01*
G01*
X34206500Y219161500D01*
G75*
G02*
X34356500Y219311500I150000J0D01*
G01*
X35856500Y219311500D01*
G75*
G02*
X36006500Y219161500I0J-150000D01*
G01*
G37*
G36*
G01*
X36006500Y220431500D02*
X36006500Y220131500D01*
G75*
G02*
X35856500Y219981500I-150000J0D01*
G01*
X34356500Y219981500D01*
G75*
G02*
X34206500Y220131500I0J150000D01*
G01*
X34206500Y220431500D01*
G75*
G02*
X34356500Y220581500I150000J0D01*
G01*
X35856500Y220581500D01*
G75*
G02*
X36006500Y220431500I0J-150000D01*
G01*
G37*
G36*
G01*
X36006500Y221701500D02*
X36006500Y221401500D01*
G75*
G02*
X35856500Y221251500I-150000J0D01*
G01*
X34356500Y221251500D01*
G75*
G02*
X34206500Y221401500I0J150000D01*
G01*
X34206500Y221701500D01*
G75*
G02*
X34356500Y221851500I150000J0D01*
G01*
X35856500Y221851500D01*
G75*
G02*
X36006500Y221701500I0J-150000D01*
G01*
G37*
G36*
G01*
X25356500Y221701500D02*
X25356500Y221401500D01*
G75*
G02*
X25206500Y221251500I-150000J0D01*
G01*
X23706500Y221251500D01*
G75*
G02*
X23556500Y221401500I0J150000D01*
G01*
X23556500Y221701500D01*
G75*
G02*
X23706500Y221851500I150000J0D01*
G01*
X25206500Y221851500D01*
G75*
G02*
X25356500Y221701500I0J-150000D01*
G01*
G37*
G36*
G01*
X25356500Y220431500D02*
X25356500Y220131500D01*
G75*
G02*
X25206500Y219981500I-150000J0D01*
G01*
X23706500Y219981500D01*
G75*
G02*
X23556500Y220131500I0J150000D01*
G01*
X23556500Y220431500D01*
G75*
G02*
X23706500Y220581500I150000J0D01*
G01*
X25206500Y220581500D01*
G75*
G02*
X25356500Y220431500I0J-150000D01*
G01*
G37*
G36*
G01*
X25356500Y219161500D02*
X25356500Y218861500D01*
G75*
G02*
X25206500Y218711500I-150000J0D01*
G01*
X23706500Y218711500D01*
G75*
G02*
X23556500Y218861500I0J150000D01*
G01*
X23556500Y219161500D01*
G75*
G02*
X23706500Y219311500I150000J0D01*
G01*
X25206500Y219311500D01*
G75*
G02*
X25356500Y219161500I0J-150000D01*
G01*
G37*
G36*
G01*
X25356500Y217891500D02*
X25356500Y217591500D01*
G75*
G02*
X25206500Y217441500I-150000J0D01*
G01*
X23706500Y217441500D01*
G75*
G02*
X23556500Y217591500I0J150000D01*
G01*
X23556500Y217891500D01*
G75*
G02*
X23706500Y218041500I150000J0D01*
G01*
X25206500Y218041500D01*
G75*
G02*
X25356500Y217891500I0J-150000D01*
G01*
G37*
D45*
X34894700Y230886000D03*
X34894700Y231836000D03*
X34894700Y229936000D03*
X32694700Y229936000D03*
X32694700Y230886000D03*
X32694700Y231836000D03*
D54*
X82181900Y229469500D03*
X85381900Y234969500D03*
X82181900Y234969500D03*
X85381900Y229469500D03*
D55*
X80311000Y240982000D03*
X70311000Y243482000D03*
X80311000Y245982000D03*
D56*
X75311000Y243332000D03*
D17*
X98100900Y265288400D03*
X95814900Y265288400D03*
D16*
X8128000Y283893000D03*
X8128000Y281607000D03*
X126873000Y293624000D03*
X126873000Y295910000D03*
X128905000Y295910000D03*
X128905000Y293624000D03*
D17*
X8128000Y279400000D03*
X5842000Y279400000D03*
X-8763000Y201549000D03*
X-6477000Y201549000D03*
X132588000Y270256000D03*
X134874000Y270256000D03*
D16*
X138748000Y254571500D03*
X138748000Y252285500D03*
X139129000Y237171000D03*
X139129000Y239457000D03*
X138748000Y222059500D03*
X138748000Y224345500D03*
D17*
X131356100Y264172700D03*
X133642100Y264172700D03*
X133540500Y248856500D03*
X131254500Y248856500D03*
X131318000Y234188000D03*
X133604000Y234188000D03*
X130848100Y218706700D03*
X133134100Y218706700D03*
X86138500Y245727600D03*
X83852500Y245727600D03*
D16*
X130683000Y286575500D03*
X130683000Y288861500D03*
X127508000Y286575500D03*
X127508000Y288861500D03*
D17*
X121983500Y294538400D03*
X124269500Y294538400D03*
X77288000Y225933000D03*
X79574000Y225933000D03*
D16*
X135877300Y261988300D03*
X135877300Y264274300D03*
X135763000Y246697500D03*
X135763000Y248983500D03*
X135826500Y233997500D03*
X135826500Y231711500D03*
X135242300Y218833700D03*
X135242300Y216547700D03*
D17*
X131406900Y281686000D03*
X129120900Y281686000D03*
D16*
X136029700Y279552400D03*
X136029700Y281838400D03*
D17*
X83852500Y243695600D03*
X86138500Y243695600D03*
D16*
X-16683800Y247216800D03*
X-16683800Y244930800D03*
X-8255000Y240665000D03*
X-8255000Y242951000D03*
X118763800Y250010300D03*
X118763800Y252296300D03*
X-10287000Y242951000D03*
X-10287000Y240665000D03*
X98640900Y291630100D03*
X98640900Y293916100D03*
X120795800Y250010300D03*
X120795800Y252296300D03*
X108585000Y291401500D03*
X108585000Y289115500D03*
X96608900Y291630100D03*
X96608900Y293916100D03*
D17*
X133477000Y207137000D03*
X131191000Y207137000D03*
D16*
X105149000Y217479500D03*
X105149000Y215193500D03*
D17*
X100958000Y212971000D03*
X98672000Y212971000D03*
X139446000Y209296000D03*
X137160000Y209296000D03*
X118999000Y199390000D03*
X121285000Y199390000D03*
X78740000Y203073000D03*
X76454000Y203073000D03*
X133477000Y204851000D03*
X131191000Y204851000D03*
D16*
X66040000Y215392000D03*
X66040000Y213106000D03*
X118179600Y263535800D03*
X118179600Y261249800D03*
D17*
X101384100Y283298900D03*
X99098100Y283298900D03*
X100958000Y210939000D03*
X98672000Y210939000D03*
D16*
X107181000Y215193500D03*
X107181000Y217479500D03*
D17*
X103244000Y215384000D03*
X100958000Y215384000D03*
X91147900Y279908000D03*
X93433900Y279908000D03*
D16*
X108597700Y284911800D03*
X108597700Y287197800D03*
X120211600Y261249800D03*
X120211600Y263535800D03*
D17*
X101735500Y236831000D03*
X99449500Y236831000D03*
X104402500Y234608500D03*
X106688500Y234608500D03*
D16*
X85598000Y283273500D03*
X85598000Y280987500D03*
X111197000Y228195000D03*
X111197000Y225909000D03*
X102307000Y232449500D03*
X102307000Y234735500D03*
X82003900Y292468300D03*
X82003900Y290182300D03*
X34036000Y282421200D03*
X34036000Y284707200D03*
X34036000Y275106000D03*
X34036000Y272820000D03*
D17*
X38521500Y268406500D03*
X36235500Y268406500D03*
D16*
X42268000Y274772000D03*
X42268000Y272486000D03*
D17*
X40640000Y292822500D03*
X38354000Y292822500D03*
D16*
X67627500Y290917500D03*
X67627500Y293203500D03*
X51892200Y285723200D03*
X51892200Y288009200D03*
X56746000Y274772000D03*
X56746000Y272486000D03*
X47030500Y274772000D03*
X47030500Y272486000D03*
X61635500Y272549500D03*
X61635500Y274835500D03*
X51920000Y274772000D03*
X51920000Y272486000D03*
D17*
X63055500Y293076500D03*
X65341500Y293076500D03*
D16*
X44030900Y283132400D03*
X44030900Y280846400D03*
X51892200Y281405200D03*
X51892200Y283691200D03*
D17*
X49441100Y234149900D03*
X47155100Y234149900D03*
X49415700Y231686100D03*
X47129700Y231686100D03*
X47129700Y229171500D03*
X49415700Y229171500D03*
D16*
X47320200Y207035400D03*
X47320200Y209321400D03*
X49555400Y207035400D03*
X49555400Y209321400D03*
X53975000Y209321400D03*
X53975000Y207035400D03*
D17*
X55880000Y232600500D03*
X58166000Y232600500D03*
X49580800Y221589600D03*
X47294800Y221589600D03*
X47294800Y219443300D03*
X49580800Y219443300D03*
X49580800Y217322400D03*
X47294800Y217322400D03*
D16*
X41719500Y204851000D03*
X41719500Y207137000D03*
D17*
X43307000Y200533000D03*
X45593000Y200533000D03*
X47294800Y211378800D03*
X49580800Y211378800D03*
X55880000Y229247700D03*
X58166000Y229247700D03*
X58166000Y225894900D03*
X55880000Y225894900D03*
X57962800Y222072200D03*
X55676800Y222072200D03*
X55689500Y219900500D03*
X57975500Y219900500D03*
X57975500Y217652600D03*
X55689500Y217652600D03*
X4191000Y218821000D03*
X1905000Y218821000D03*
X-8636000Y213148300D03*
X-6350000Y213148300D03*
X-8636000Y219257000D03*
X-6350000Y219257000D03*
D16*
X4953000Y205867000D03*
X4953000Y208153000D03*
X7112000Y208153000D03*
X7112000Y205867000D03*
D17*
X-6540500Y207890500D03*
X-8826500Y207890500D03*
X34861500Y215328500D03*
X37147500Y215328500D03*
D16*
X66188200Y224370900D03*
X66188200Y222084900D03*
X37909500Y229362000D03*
X37909500Y231648000D03*
D17*
X-6540500Y205858500D03*
X-8826500Y205858500D03*
X12700000Y234188000D03*
X14986000Y234188000D03*
D57*
X-5254000Y284480000D03*
D58*
X-254000Y284480000D03*
D19*
X138645900Y259756900D03*
X138645900Y264756900D03*
X138620500Y244872500D03*
X138620500Y249872500D03*
X138620500Y229569000D03*
X138620500Y234569000D03*
X138163300Y214392500D03*
X138163300Y219392500D03*
X135750300Y267652500D03*
X130750300Y267652500D03*
X135699500Y252539500D03*
X130699500Y252539500D03*
X135699500Y237490000D03*
X130699500Y237490000D03*
X135064500Y222491300D03*
X130064500Y222491300D03*
D59*
X10922000Y241921400D03*
X10922000Y252970400D03*
D30*
X109537500Y278765000D03*
D25*
X114537500Y278765000D03*
D18*
X77597000Y289039300D03*
D19*
X74097000Y289039300D03*
D18*
X114744500Y294843200D03*
D19*
X118244500Y294843200D03*
D16*
X52889900Y268668000D03*
X52889900Y266382000D03*
X44761900Y266382000D03*
X44761900Y268668000D03*
X46793900Y266382000D03*
X46793900Y268668000D03*
X48825900Y268668000D03*
X48825900Y266382000D03*
X50857900Y266382000D03*
X50857900Y268668000D03*
X54921900Y268668000D03*
X54921900Y266382000D03*
D25*
X-1143000Y262652500D03*
D30*
X-1143000Y267652500D03*
D15*
X114795300Y289407600D03*
X114795300Y286156400D03*
X133642100Y281736800D03*
X133642100Y278485600D03*
D26*
X102400100Y288671000D03*
X99148900Y288671000D03*
D15*
X102222300Y277507700D03*
X102222300Y280758900D03*
X104762300Y280758900D03*
X104762300Y277507700D03*
D17*
X-8826500Y203826500D03*
X-6540500Y203826500D03*
X-6540500Y209922500D03*
X-8826500Y209922500D03*
D56*
X-17500000Y201000000D03*
X-17500000Y298500000D03*
X138000000Y201000000D03*
X138000000Y298500000D03*
D14*
X78486000Y296849800D03*
D13*
X75946000Y296849800D03*
X73406000Y296849800D03*
D60*
X74569800Y294513000D03*
X75869800Y294513000D03*
X77169800Y294513000D03*
X132270500Y294906700D03*
X133570500Y294906700D03*
D13*
X131508500Y297192700D03*
D14*
X134048500Y297192700D03*
X106489500Y296573700D03*
D13*
X103949500Y296573700D03*
D60*
X106011500Y294287700D03*
X104711500Y294287700D03*
X83502500Y294652700D03*
X84802500Y294652700D03*
D13*
X82740500Y296938700D03*
D14*
X85280500Y296938700D03*
X125730000Y251333000D03*
D13*
X125730000Y248793000D03*
X125730000Y246253000D03*
D12*
X128066800Y247416800D03*
X128066800Y248716800D03*
X128066800Y250016800D03*
X128066800Y234649800D03*
X128066800Y233349800D03*
X128066800Y232049800D03*
D13*
X125730000Y230886000D03*
X125730000Y233426000D03*
D14*
X125730000Y235966000D03*
X125603000Y220853000D03*
D13*
X125603000Y218313000D03*
X125603000Y215773000D03*
D12*
X127939800Y216936800D03*
X127939800Y218236800D03*
X127939800Y219536800D03*
D60*
X92557600Y228066600D03*
X91257600Y228066600D03*
D13*
X93319600Y225780600D03*
D14*
X90779600Y225780600D03*
X96520000Y220980000D03*
D13*
X96520000Y218440000D03*
X96520000Y215900000D03*
D12*
X98856800Y217063800D03*
X98856800Y218363800D03*
X98856800Y219663800D03*
X97078800Y238015300D03*
X97078800Y236715300D03*
X97078800Y235415300D03*
D13*
X94742000Y234251500D03*
X94742000Y236791500D03*
D14*
X94742000Y239331500D03*
D12*
X-7726700Y265222000D03*
X-7726700Y266522000D03*
D13*
X-10012700Y264460000D03*
D14*
X-10012700Y267000000D03*
X21500000Y247500000D03*
D13*
X21500000Y244960000D03*
X21500000Y242420000D03*
D12*
X23836800Y243583800D03*
X23836800Y244883800D03*
X23836800Y246183800D03*
D60*
X125125000Y277286000D03*
X123825000Y277286000D03*
D13*
X125887000Y275000000D03*
D14*
X123347000Y275000000D03*
D60*
X97663000Y277228300D03*
X96363000Y277228300D03*
D13*
X98425000Y274942300D03*
D14*
X95885000Y274942300D03*
X80000000Y274942300D03*
D13*
X82540000Y274942300D03*
D60*
X80478000Y277228300D03*
X81778000Y277228300D03*
D14*
X71120000Y200279000D03*
D13*
X73660000Y200279000D03*
X76200000Y200279000D03*
X78740000Y200279000D03*
X81280000Y200279000D03*
X61595000Y217170000D03*
X61595000Y219710000D03*
X61595000Y222250000D03*
X61595000Y224790000D03*
D14*
X61595000Y227330000D03*
D13*
X96520000Y200152000D03*
X93980000Y200152000D03*
X91440000Y200152000D03*
X88900000Y200152000D03*
D14*
X86360000Y200152000D03*
X88900000Y230124000D03*
D13*
X88900000Y232664000D03*
X88900000Y235204000D03*
X88900000Y237744000D03*
X88900000Y240284000D03*
X88900000Y242824000D03*
X88900000Y245364000D03*
D14*
X85661500Y248259600D03*
D13*
X85661500Y250799600D03*
D12*
X83375500Y248737600D03*
X83375500Y250037600D03*
D14*
X125857000Y266636500D03*
D13*
X125857000Y264096500D03*
X125857000Y261556500D03*
D12*
X128193800Y262720300D03*
X128193800Y264020300D03*
X128193800Y265320300D03*
X83388200Y240449100D03*
X83388200Y239149100D03*
D13*
X85674200Y241211100D03*
D14*
X85674200Y238671100D03*
D19*
X66802000Y287234500D03*
X66802000Y282234500D03*
D14*
X69989700Y284631000D03*
D13*
X69989700Y287171000D03*
D14*
X71500000Y264500000D03*
D13*
X71500000Y267040000D03*
X71500000Y269580000D03*
D12*
X69163200Y268416200D03*
X69163200Y267116200D03*
X69163200Y265816200D03*
D14*
X67945000Y233807000D03*
D13*
X67945000Y231267000D03*
X67945000Y228727000D03*
D12*
X70281800Y229890800D03*
X70281800Y231190800D03*
X70281800Y232490800D03*
D10*
X69500000Y300500000D03*
X32000000Y300500000D03*
X73500000Y273000000D03*
X103000000Y300500000D03*
X135000000Y273000000D03*
D14*
X136335000Y256983000D03*
X136208000Y241616000D03*
X136208000Y226503000D03*
D10*
X73500000Y300500000D03*
X69469000Y278000000D03*
X32000000Y278000000D03*
D45*
X106701000Y226061000D03*
X106701000Y227011000D03*
X106701000Y227961000D03*
X104501000Y227961000D03*
X104501000Y226061000D03*
M02*
