M48
METRIC,TZ
T1C0.305
T2C0.400
T3C0.750
T4C0.800
T5C0.900
T6C0.914
T7C0.920
T8C1.000
T9C1.100
T10C1.200
T11C1.300
T12C1.500
T13C1.520
T14C2.330
T15C3.500
%
G90
G05
T1
X-11112Y204532
X-10096Y203770
X-9842Y201484
X-5270Y216978
X-5270Y214946
X-4953Y247269
X-2985Y248666
X1554Y256540
X2604Y208342
X2604Y204786
X26480Y243140
X27750Y243140
X29274Y243140
X30544Y243140
X31560Y244156
X31623Y257556
X31687Y234631
X32016Y259254
X33846Y259142
X34354Y258380
X34354Y234631
X35370Y222312
X35878Y258380
X36386Y259142
X37148Y244156
X37656Y235139
X38100Y215854
X38799Y236155
X55203Y209635
X60147Y209013
X60350Y208034
X61717Y211836
X61894Y212934
X62945Y213050
X62956Y214092
X63935Y212906
X67818Y226695
X70310Y202692
X70485Y216281
X70485Y214757
X70615Y209559
X71247Y203073
X71355Y218316
X71399Y208939
X71501Y215392
X71882Y202184
X72205Y208347
X72390Y212217
X72517Y214630
X72644Y203200
X72913Y202183
X73441Y219837
X73654Y208782
X74168Y211455
X74367Y202362
X74422Y203962
X74564Y207344
X75057Y237998
X75219Y219837
X75311Y209677
X75729Y204497
X75946Y208534
X77343Y215514
X77456Y207494
X78435Y207290
X79292Y213779
X80137Y214249
X80229Y219528
X81280Y219583
X81280Y213614
X81407Y216408
X82042Y214503
X82598Y216280
X82841Y214243
X85090Y206883
X85979Y216408
X86678Y220663
X86703Y209620
X86741Y204978
X87051Y215265
X87122Y211582
X87249Y212725
X88011Y205486
X88161Y208282
X88530Y210207
X88900Y204879
X99886Y215454
X103950Y206564
X104458Y208088
X104765Y212205
X107125Y236663
X120206Y200722
X120968Y289114
X121158Y238496
X121730Y291400
X122238Y295718
X125032Y207834
X125285Y201485
X126367Y201803
X126556Y200468
X131636Y199706
X132300Y215425
X132734Y230866
X132775Y245809
X136716Y258761
X139510Y205294
T2
X-20066Y300990
X-20066Y294005
X-20066Y288862
X-20066Y283210
X-20066Y278130
X-20066Y273050
X-20066Y270510
X-20066Y268605
X-20066Y260350
X-20066Y239203
X-20066Y205105
X-20066Y198755
X-19939Y220980
X-19939Y216281
X-19939Y211455
X-17589Y239203
X-16764Y221996
X-16256Y260350
X-14986Y300990
X-14986Y280670
X-14986Y275590
X-14986Y264160
X-14986Y198755
X-14351Y250190
X-14160Y241616
X-13970Y239203
X-13716Y221996
X-13398Y244664
X-13144Y254316
X-12446Y265430
X-11176Y198755
X-9906Y300990
X-9906Y288290
X-9906Y283210
X-9906Y278130
X-9652Y221996
X-9398Y239203
X-9080Y251205
X-9080Y248855
X-7366Y198755
X-5778Y259904
X-5778Y258126
X-5461Y252222
X-5207Y221996
X-4826Y300990
X-4826Y295910
X-4826Y288290
X-4826Y270510
X-4826Y267335
X-4826Y264160
X-4826Y254635
X-4826Y253173
X-4508Y241362
X-4381Y239203
X-4191Y273050
X-3810Y262762
X-3746Y257872
X-3238Y255332
X-2476Y245680
X-2476Y244156
X-2413Y210820
X-2222Y241870
X-1270Y221996
X-1238Y234500
X-1238Y230500
X-1238Y226500
X-1206Y223963
X-1142Y264667
X-952Y239203
X-952Y237044
X-254Y214907
X254Y288290
X254Y273050
X254Y270510
X254Y264160
X572Y277938
X889Y198755
X1026Y215195
X1080Y262635
X1143Y213614
X1398Y259714
X1905Y239203
X1905Y236982
X1905Y212358
X2731Y223963
X2794Y300990
X2794Y295910
X2794Y221996
X2858Y263397
X3429Y250825
X4636Y278192
X4953Y217043
X5207Y231394
X5334Y273050
X5334Y270510
X5842Y221996
X5906Y223963
X5969Y263525
X5969Y248920
X5969Y218059
X5969Y214376
X6033Y239203
X6033Y237044
X7874Y228092
X7938Y231710
X8001Y214249
X8001Y210947
X8509Y246380
X8954Y229488
X8954Y226122
X8954Y223582
X8954Y221169
X9081Y234758
X9144Y263525
X10224Y239203
X10287Y236982
X10414Y300990
X10414Y295910
X11049Y198755
X11431Y263524
X11804Y213632
X12319Y246380
X12954Y210947
X13335Y203708
X13589Y263525
X14796Y239330
X14796Y233107
X14796Y230948
X14986Y207264
X15494Y249555
X15494Y243205
X15494Y204851
X15494Y202565
X15685Y219772
X15812Y215835
X16320Y233107
X16320Y230948
X16320Y228535
X17209Y213676
X17272Y236982
X17336Y217486
X17399Y207264
X17463Y239330
X18034Y210947
X18034Y203708
X18448Y216173
X18669Y198755
X19876Y233107
X19876Y229424
X19939Y270510
X19939Y266700
X20003Y234885
X20130Y274382
X20574Y203708
X21082Y213741
X21527Y233107
X21717Y210947
X21908Y222058
X22035Y229424
X22035Y226122
X22479Y198755
X22670Y273620
X22797Y231202
X23114Y270510
X23114Y203835
X23397Y219075
X23559Y234504
X24448Y273620
X24448Y229362
X24575Y226122
X24956Y274890
X24956Y239076
X24956Y236917
X25337Y215454
X25337Y213422
X25527Y210947
X25654Y204851
X25654Y202565
X26035Y221488
X26226Y261428
X27115Y225995
X27559Y217678
X27559Y211963
X28194Y300990
X28194Y295910
X28194Y288290
X28194Y283210
X28194Y278130
X28194Y273050
X28194Y203835
X28194Y198755
X28512Y264730
X28766Y262698
X29464Y270510
X29464Y267970
X29464Y217170
X29464Y211963
X30099Y207391
X30226Y212852
X30353Y216281
X31052Y262444
X31560Y298385
X31560Y296480
X31560Y293940
X31560Y289495
X31560Y286955
X31560Y283780
X31560Y279970
X32004Y273050
X32258Y238760
X32258Y237490
X32258Y236220
X32639Y198755
X33020Y213741
X33401Y203708
X33528Y238760
X33528Y237490
X33528Y236220
X33592Y262698
X34036Y207391
X34100Y300290
X34544Y298220
X34798Y238760
X34798Y237490
X34798Y236220
X35370Y277430
X35814Y279805
X35814Y204470
X35814Y201295
X35941Y207391
X36068Y238760
X36068Y237490
X36068Y236220
X36132Y262698
X36132Y227900
X36449Y275995
X36511Y219647
X37148Y225360
X37465Y207391
X37719Y298220
X37910Y221804
X38354Y291413
X38354Y203581
X38545Y300290
X38926Y264222
X38989Y262890
X39180Y272604
X39624Y198755
X39688Y270318
X39815Y277430
X40005Y208534
X40259Y264160
X40259Y262890
X40259Y259715
X40577Y290765
X40767Y274447
X40894Y298220
X40894Y233680
X40894Y229870
X40894Y226695
X41529Y262890
X41529Y259715
X42098Y200848
X42355Y300290
X42418Y266700
X42799Y279170
X42799Y262890
X42799Y259715
X42863Y264349
X43434Y290727
X43434Y277495
X44069Y264160
X44069Y262890
X44069Y259715
X44704Y298220
X45276Y272604
X45339Y260350
X45593Y277495
X45709Y267476
X45974Y293140
X45974Y211328
X46038Y205294
X46101Y284377
X46292Y261047
X46546Y203516
X46609Y199009
X46990Y214884
X47244Y260350
X47435Y300290
X48133Y207010
X48514Y277495
X48514Y262890
X48578Y261809
X48578Y260666
X48578Y259523
X48578Y202754
X49149Y298220
X49149Y246380
X49149Y243205
X49149Y240030
X49594Y235520
X49721Y262825
X49721Y261809
X49721Y259523
X50102Y272604
X50102Y199452
X50419Y279170
X50419Y277495
X50419Y257175
X50737Y262825
X50737Y261809
X50737Y260666
X50737Y259523
X51054Y205105
X51689Y298220
X51689Y240030
X51880Y296353
X51880Y293432
X51880Y291781
X52134Y205802
X52451Y209804
X52795Y214560
X52959Y259715
X52959Y201930
X53150Y277430
X53241Y207590
X53658Y243394
X53730Y267358
X53975Y284377
X54039Y287717
X54229Y298220
X54610Y211709
X54864Y259715
X54864Y204597
X54928Y272858
X55182Y277430
X55690Y300290
X55690Y289114
X55944Y243394
X56134Y249555
X56903Y221009
X57214Y262952
X57404Y277495
X57468Y289114
X58039Y295045
X58738Y261936
X58738Y259715
X59309Y282980
X59309Y279805
X59500Y295083
X59754Y272858
X59881Y291908
X60135Y300290
X60579Y263453
X60960Y281329
X60978Y231319
X61000Y278000
X61214Y291870
X61214Y268605
X61214Y266065
X61830Y205848
X61849Y240030
X62230Y230251
X62230Y204216
X62802Y242886
X63020Y266954
X63119Y289330
X63230Y264243
X63754Y291616
X64389Y238760
X64580Y300290
X64834Y272604
X65024Y257810
X65024Y236220
X65151Y260985
X65278Y218440
X65342Y242632
X65555Y262405
X66167Y203327
X66294Y275590
X66485Y279335
X66739Y298131
X66802Y215392
X66929Y284758
X66929Y259715
X67564Y273050
X67755Y300290
X67755Y277430
X68009Y298131
X68072Y251368
X68199Y257810
X68199Y256540
X68517Y296861
X68517Y294194
X68834Y279170
X68834Y240665
X69342Y251368
X69787Y234758
X70485Y251368
X70739Y276225
X71679Y251368
X71692Y240473
X71819Y285050
X71946Y295083
X72000Y272000
X72009Y292370
X72009Y236220
X72644Y290195
X72644Y287655
X72771Y251368
X73914Y263525
X73914Y259715
X74070Y251368
X75058Y250787
X75184Y292100
X75184Y286385
X75184Y276860
X75375Y300290
X76564Y224235
X77026Y283272
X77724Y290830
X77724Y276860
X77724Y266700
X78359Y272415
X78359Y270510
X78804Y285812
X79012Y202832
X79185Y300290
X80264Y282575
X80264Y266700
X80455Y272350
X80899Y270510
X81000Y288500
X82169Y232410
X82360Y300290
X82804Y281940
X82931Y202438
X83312Y200279
X83820Y232156
X84646Y260412
X84963Y227965
X85281Y264731
X85344Y232410
X85598Y203454
X85852Y225679
X85979Y293370
X85979Y287020
X85979Y278130
X85979Y275590
X86170Y300290
X87122Y203073
X87440Y292416
X87503Y247156
X87757Y222885
X88075Y272350
X88456Y263206
X88773Y220726
X88964Y294194
X89154Y226314
X89154Y224155
X89345Y300290
X89345Y297115
X89980Y288860
X90107Y268765
X90615Y290130
X90742Y260412
X91059Y250190
X91504Y267930
X91694Y294640
X92266Y287844
X92329Y278130
X92329Y275590
X92456Y213741
X92456Y210820
X93028Y247712
X93155Y300290
X93155Y297115
X93155Y272350
X93282Y258380
X93282Y217994
X94234Y286385
X94869Y245745
X95250Y217170
X95250Y210820
X95314Y259396
X95314Y242632
X95377Y213614
X95504Y229235
X95504Y224028
X96000Y286500
X96330Y272350
X96584Y294956
X96774Y281305
X96774Y227965
X96838Y204786
X96965Y300290
X97409Y241300
X98362Y256348
X98616Y232726
X99124Y204786
X99949Y220980
X99984Y260794
X100140Y278065
X100330Y199390
X100711Y288036
X100775Y300290
X100775Y297115
X100775Y292035
X101854Y294005
X101854Y252095
X102045Y279335
X102680Y257618
X103950Y232218
X103950Y229678
X105093Y199326
X105093Y228281
X105220Y300290
X105791Y220980
X105855Y272350
X106172Y211074
X106236Y225741
X106490Y261174
X106795Y213015
X106998Y252284
X108014Y228154
X108204Y281305
X108204Y276225
X108585Y199326
X109030Y300290
X109030Y272350
X109474Y233045
X109792Y284542
X109792Y263460
X110173Y221042
X110300Y265492
X110744Y297180
X110744Y293370
X110744Y217805
X111316Y252792
X111316Y251522
X111379Y290195
X111379Y281305
X111379Y276225
X111379Y209550
X111379Y205105
X111443Y224282
X111570Y261174
X112205Y272350
X112649Y292100
X112649Y241300
X112840Y300290
X112840Y295210
X113919Y287655
X113919Y248984
X114554Y281305
X114554Y276225
X115189Y241300
X115824Y283210
X116459Y293370
X116650Y300290
X117412Y199071
X117729Y288290
X117729Y241300
X117729Y236855
X117920Y208215
X118555Y290130
X118555Y272985
X119634Y293370
X119634Y225425
X119634Y218440
X119634Y212090
X119825Y295845
X119825Y281875
X119825Y278700
X119825Y275525
X120269Y241300
X120269Y236855
X120269Y234315
X120269Y231775
X120460Y300290
X121095Y272985
X121539Y287020
X121539Y233045
X121539Y229870
X121539Y225425
X122809Y287655
X122809Y221615
X122809Y218440
X122809Y214630
X123127Y208279
X123190Y199673
X123635Y300290
X123635Y272985
X124714Y287020
X125152Y200278
X125349Y280035
X125413Y226122
X125794Y240473
X125857Y292608
X126619Y205105
X127064Y226122
X127064Y224344
X127445Y300290
X127445Y198563
X127953Y221042
X128080Y240473
X128080Y238441
X128207Y215581
X128524Y280035
X128524Y276860
X128524Y274320
X128524Y268605
X128524Y260350
X128524Y254635
X128524Y245110
X128969Y292162
X128969Y205675
X129159Y288290
X129159Y218249
X129362Y248717
X129477Y216724
X129477Y208342
X129489Y233350
X129540Y263779
X129604Y235647
X130429Y294640
X131255Y300290
X131509Y223328
X131509Y221804
X131890Y278827
X132525Y273620
X132652Y267778
X132652Y222566
X132729Y261074
X132969Y291465
X132969Y217408
X132969Y198755
X133160Y254189
X133160Y252538
X133223Y232600
X133287Y266762
X133287Y256983
X133287Y228789
X133287Y226757
X133287Y224471
X133350Y247269
X133414Y243902
X133414Y241743
X133414Y237552
X133477Y262636
X133541Y239330
X133541Y223328
X133541Y221804
X133795Y267778
X133795Y235647
X134176Y236728
X134176Y238314
X134303Y201611
X134430Y292670
X134430Y290130
X134430Y266762
X134430Y253427
X134430Y251649
X134684Y277430
X134684Y213549
X134684Y226885
X134811Y256983
X134811Y228535
X134811Y208469
X134811Y205040
X134938Y255332
X134938Y224598
X134938Y211771
X136144Y198755
X136335Y239457
X136716Y254697
X137000Y273620
X137097Y236030
X137224Y279208
X137605Y238695
X138748Y216978
X139002Y263079
X139129Y232599
X139510Y295845
X139510Y293305
X139510Y290765
X139510Y287590
X139510Y284415
X139510Y281240
X139510Y278065
X139510Y273620
X139954Y266700
X139954Y261620
X139954Y257810
X139954Y253365
X139954Y248285
X139954Y243205
X139954Y231775
X139954Y218440
X139954Y213360
X139954Y203200
X139954Y198755
T3
X105270Y285940
X105270Y284671
X105270Y283400
X135128Y287972
X135128Y286702
X135128Y285433
T4
X130064Y222491
X135064Y222491
X-17750Y266000
X-14250Y266000
X138646Y264757
X138646Y259757
X138621Y234569
X138621Y229569
X114744Y294843
X118244Y294843
X130750Y267652
X135750Y267652
X130699Y237490
X135700Y237490
X66802Y287235
X66802Y282235
X138621Y249873
X138621Y244873
X74097Y289039
X77597Y289039
X138163Y219392
X138163Y214392
X130699Y252539
X135700Y252539
T5
X41275Y218313
X43815Y218313
X1778Y201676
X4318Y201676
X6858Y201676
X9398Y201676
X-3302Y201676
X-762Y201676
X41275Y222758
X43815Y222758
X41275Y213868
X43815Y213868
T6
X762Y206121
X9667Y207010
X12700Y273939
X18750Y261326
X19368Y254189
X33020Y215519
X35727Y211328
X37465Y217551
X40894Y245110
X40894Y242570
X42799Y246380
X42799Y243840
X42799Y241300
X61214Y232791
X63537Y230024
X67818Y206067
X68870Y199536
X75168Y198521
X82500Y269224
X88735Y277765
X88900Y264731
X92202Y236093
X93345Y244475
X101791Y238365
X102807Y204833
X105096Y237242
X105728Y253935
X112395Y232918
X113792Y209804
X117000Y275000
X121094Y256096
X121931Y263536
X131953Y201549
T7
X-14891Y214391
X-14891Y211891
X-12891Y214391
X-12891Y211891
T8
X90805Y221869
X93345Y221869
X80000Y274942
X82540Y274942
X135000Y273000
X90780Y225781
X93320Y225781
X69990Y287171
X69990Y284631
X73406Y296850
X75946Y296850
X78486Y296850
X61595Y227330
X61595Y224790
X61595Y222250
X61595Y219710
X61595Y217170
X136208Y241616
X-18098Y233045
X-18098Y230505
X-18098Y227965
X109538Y278765
X114538Y278765
X94742Y239331
X94742Y236792
X94742Y234251
X67945Y233807
X67945Y231267
X67945Y228727
X103949Y296574
X106490Y296574
X-1143Y267652
X-1143Y262652
X43434Y234696
X43434Y232156
X43434Y229616
X43434Y227076
X88900Y245364
X88900Y242824
X88900Y240284
X88900Y237744
X88900Y235204
X88900Y232664
X88900Y230124
X73500Y300500
X56020Y200304
X58560Y200304
X61100Y200304
X63640Y200304
X66180Y200304
X21500Y247500
X21500Y244960
X21500Y242420
X32000Y300500
X125730Y251333
X125730Y248793
X125730Y246253
X125857Y266637
X125857Y264097
X125857Y261556
X103000Y273000
X32000Y278000
X57404Y213614
X57404Y211074
X57404Y208534
X57404Y205994
X57404Y203454
X95885Y274942
X98425Y274942
X103000Y300500
X125603Y220853
X125603Y218313
X125603Y215773
X21209Y262890
X21209Y260350
X21209Y257810
X71120Y200279
X73660Y200279
X76200Y200279
X78740Y200279
X81280Y200279
X136335Y256983
X96520Y220980
X96520Y218440
X96520Y215900
X71500Y269580
X71500Y267040
X71500Y264500
X131509Y297193
X134049Y297193
X86360Y200152
X88900Y200152
X91440Y200152
X93980Y200152
X96520Y200152
X136208Y226503
X-17395Y255675
X-17395Y253135
X-17395Y250595
X6156Y287744
X13656Y289344
X-10013Y267000
X-10013Y264460
X69500Y300500
X82741Y296939
X85281Y296939
X135000Y300500
X85662Y250800
X85662Y248260
X69469Y278000
X90678Y216725
X90678Y214186
X90678Y211646
X90678Y209106
X90678Y206565
X90678Y204026
X123347Y275000
X125887Y275000
X73500Y273000
X125730Y235966
X125730Y233426
X125730Y230886
X85674Y241211
X85674Y238671
T9
X12550Y205922
X12550Y201422
X19050Y205922
X19050Y201422
X56515Y287298
X56515Y284758
X56515Y282218
X32512Y205867
X32512Y201367
X39012Y205867
X39012Y201367
X61633Y295667
X64173Y295667
X66713Y295667
X63411Y287298
X63411Y284758
X63411Y282218
X48641Y287298
X48641Y284758
X48641Y282218
X40843Y287146
X40843Y284606
X40843Y282066
X22456Y205922
X22456Y201422
X28956Y205922
X28956Y201422
X38138Y295667
X40678Y295667
X43218Y295667
T10
X-5254Y284480
X-254Y284480
T11
X70311Y243482
X80311Y245982
X80311Y240982
T12
X-9014Y295910
X13586Y295910
T13
X49149Y295045
X54229Y295045
X-15748Y291846
X-15748Y286766
T14
X-17601Y219161
X-17601Y207121
T15
X138000Y298500
X138000Y201000
X-17500Y298500
X-17500Y201000
T0
M30
